<?xml version="1.0" encoding="utf-8" standalone="no"?>
<!DOCTYPE svg PUBLIC "-//W3C//DTD SVG 1.1//EN"
  "http://www.w3.org/Graphics/SVG/1.1/DTD/svg11.dtd">
<svg xmlns:xlink="http://www.w3.org/1999/xlink" width="360pt" height="360pt" viewBox="0 0 360 360" xmlns="http://www.w3.org/2000/svg" version="1.1">
 <metadata>
  <rdf:RDF xmlns:dc="http://purl.org/dc/elements/1.1/" xmlns:cc="http://creativecommons.org/ns#" xmlns:rdf="http://www.w3.org/1999/02/22-rdf-syntax-ns#">
   <cc:Work>
    <dc:type rdf:resource="http://purl.org/dc/dcmitype/StillImage"/>
    <dc:date>2025-08-01T13:47:47.704978</dc:date>
    <dc:format>image/svg+xml</dc:format>
    <dc:creator>
     <cc:Agent>
      <dc:title>Matplotlib v3.9.4, https://matplotlib.org/</dc:title>
     </cc:Agent>
    </dc:creator>
   </cc:Work>
  </rdf:RDF>
 </metadata>
 <defs>
  <style type="text/css">*{stroke-linejoin: round; stroke-linecap: butt}</style>
 </defs>
 <g id="figure_1">
  <g id="patch_1">
   <path d="M 0 360 
L 360 360 
L 360 0 
L 0 0 
L 0 360 
z
" style="fill: none"/>
  </g>
  <g id="axes_1">
   <g id="patch_2">
    <path d="M 72.342 304.308 
L 344.448 304.308 
L 344.448 15.552 
L 72.342 15.552 
L 72.342 304.308 
z
" style="fill: none"/>
   </g>
   <g id="matplotlib.axis_1">
    <g id="xtick_1">
     <g id="line2d_1">
      <defs>
       <path id="m34778d979d" d="M 0 0 
L 0 6 
" style="stroke: #000000; stroke-width: 1.25"/>
      </defs>
      <g>
       <use xlink:href="#m34778d979d" x="110.924608" y="304.308" style="stroke: #000000; stroke-width: 1.25"/>
      </g>
     </g>
     <g id="text_1">
      <!-- −80 -->
      <g transform="translate(96.995514 323.837938) scale(0.132 -0.132)">
       <defs>
        <path id="DejaVuSans-2212" d="M 678 2272 
L 4684 2272 
L 4684 1741 
L 678 1741 
L 678 2272 
z
" transform="scale(0.015625)"/>
        <path id="DejaVuSans-38" d="M 2034 2216 
Q 1584 2216 1326 1975 
Q 1069 1734 1069 1313 
Q 1069 891 1326 650 
Q 1584 409 2034 409 
Q 2484 409 2743 651 
Q 3003 894 3003 1313 
Q 3003 1734 2745 1975 
Q 2488 2216 2034 2216 
z
M 1403 2484 
Q 997 2584 770 2862 
Q 544 3141 544 3541 
Q 544 4100 942 4425 
Q 1341 4750 2034 4750 
Q 2731 4750 3128 4425 
Q 3525 4100 3525 3541 
Q 3525 3141 3298 2862 
Q 3072 2584 2669 2484 
Q 3125 2378 3379 2068 
Q 3634 1759 3634 1313 
Q 3634 634 3220 271 
Q 2806 -91 2034 -91 
Q 1263 -91 848 271 
Q 434 634 434 1313 
Q 434 1759 690 2068 
Q 947 2378 1403 2484 
z
M 1172 3481 
Q 1172 3119 1398 2916 
Q 1625 2713 2034 2713 
Q 2441 2713 2670 2916 
Q 2900 3119 2900 3481 
Q 2900 3844 2670 4047 
Q 2441 4250 2034 4250 
Q 1625 4250 1398 4047 
Q 1172 3844 1172 3481 
z
" transform="scale(0.015625)"/>
        <path id="DejaVuSans-30" d="M 2034 4250 
Q 1547 4250 1301 3770 
Q 1056 3291 1056 2328 
Q 1056 1369 1301 889 
Q 1547 409 2034 409 
Q 2525 409 2770 889 
Q 3016 1369 3016 2328 
Q 3016 3291 2770 3770 
Q 2525 4250 2034 4250 
z
M 2034 4750 
Q 2819 4750 3233 4129 
Q 3647 3509 3647 2328 
Q 3647 1150 3233 529 
Q 2819 -91 2034 -91 
Q 1250 -91 836 529 
Q 422 1150 422 2328 
Q 422 3509 836 4129 
Q 1250 4750 2034 4750 
z
" transform="scale(0.015625)"/>
       </defs>
       <use xlink:href="#DejaVuSans-2212"/>
       <use xlink:href="#DejaVuSans-38" x="83.789062"/>
       <use xlink:href="#DejaVuSans-30" x="147.412109"/>
      </g>
     </g>
    </g>
    <g id="xtick_2">
     <g id="line2d_2">
      <g>
       <use xlink:href="#m34778d979d" x="163.352915" y="304.308" style="stroke: #000000; stroke-width: 1.25"/>
      </g>
     </g>
     <g id="text_2">
      <!-- −60 -->
      <g transform="translate(149.423821 323.837938) scale(0.132 -0.132)">
       <defs>
        <path id="DejaVuSans-36" d="M 2113 2584 
Q 1688 2584 1439 2293 
Q 1191 2003 1191 1497 
Q 1191 994 1439 701 
Q 1688 409 2113 409 
Q 2538 409 2786 701 
Q 3034 994 3034 1497 
Q 3034 2003 2786 2293 
Q 2538 2584 2113 2584 
z
M 3366 4563 
L 3366 3988 
Q 3128 4100 2886 4159 
Q 2644 4219 2406 4219 
Q 1781 4219 1451 3797 
Q 1122 3375 1075 2522 
Q 1259 2794 1537 2939 
Q 1816 3084 2150 3084 
Q 2853 3084 3261 2657 
Q 3669 2231 3669 1497 
Q 3669 778 3244 343 
Q 2819 -91 2113 -91 
Q 1303 -91 875 529 
Q 447 1150 447 2328 
Q 447 3434 972 4092 
Q 1497 4750 2381 4750 
Q 2619 4750 2861 4703 
Q 3103 4656 3366 4563 
z
" transform="scale(0.015625)"/>
       </defs>
       <use xlink:href="#DejaVuSans-2212"/>
       <use xlink:href="#DejaVuSans-36" x="83.789062"/>
       <use xlink:href="#DejaVuSans-30" x="147.412109"/>
      </g>
     </g>
    </g>
    <g id="xtick_3">
     <g id="line2d_3">
      <g>
       <use xlink:href="#m34778d979d" x="215.781222" y="304.308" style="stroke: #000000; stroke-width: 1.25"/>
      </g>
     </g>
     <g id="text_3">
      <!-- −40 -->
      <g transform="translate(201.852129 323.837938) scale(0.132 -0.132)">
       <defs>
        <path id="DejaVuSans-34" d="M 2419 4116 
L 825 1625 
L 2419 1625 
L 2419 4116 
z
M 2253 4666 
L 3047 4666 
L 3047 1625 
L 3713 1625 
L 3713 1100 
L 3047 1100 
L 3047 0 
L 2419 0 
L 2419 1100 
L 313 1100 
L 313 1709 
L 2253 4666 
z
" transform="scale(0.015625)"/>
       </defs>
       <use xlink:href="#DejaVuSans-2212"/>
       <use xlink:href="#DejaVuSans-34" x="83.789062"/>
       <use xlink:href="#DejaVuSans-30" x="147.412109"/>
      </g>
     </g>
    </g>
    <g id="xtick_4">
     <g id="line2d_4">
      <g>
       <use xlink:href="#m34778d979d" x="268.209529" y="304.308" style="stroke: #000000; stroke-width: 1.25"/>
      </g>
     </g>
     <g id="text_4">
      <!-- −20 -->
      <g transform="translate(254.280436 323.837938) scale(0.132 -0.132)">
       <defs>
        <path id="DejaVuSans-32" d="M 1228 531 
L 3431 531 
L 3431 0 
L 469 0 
L 469 531 
Q 828 903 1448 1529 
Q 2069 2156 2228 2338 
Q 2531 2678 2651 2914 
Q 2772 3150 2772 3378 
Q 2772 3750 2511 3984 
Q 2250 4219 1831 4219 
Q 1534 4219 1204 4116 
Q 875 4013 500 3803 
L 500 4441 
Q 881 4594 1212 4672 
Q 1544 4750 1819 4750 
Q 2544 4750 2975 4387 
Q 3406 4025 3406 3419 
Q 3406 3131 3298 2873 
Q 3191 2616 2906 2266 
Q 2828 2175 2409 1742 
Q 1991 1309 1228 531 
z
" transform="scale(0.015625)"/>
       </defs>
       <use xlink:href="#DejaVuSans-2212"/>
       <use xlink:href="#DejaVuSans-32" x="83.789062"/>
       <use xlink:href="#DejaVuSans-30" x="147.412109"/>
      </g>
     </g>
    </g>
    <g id="xtick_5">
     <g id="line2d_5">
      <g>
       <use xlink:href="#m34778d979d" x="320.637837" y="304.308" style="stroke: #000000; stroke-width: 1.25"/>
      </g>
     </g>
     <g id="text_5">
      <!-- 0 -->
      <g transform="translate(316.438587 323.837938) scale(0.132 -0.132)">
       <use xlink:href="#DejaVuSans-30"/>
      </g>
     </g>
    </g>
    <g id="text_6">
     <!-- Log-Likelihood -->
     <g transform="translate(156.639375 341.524875) scale(0.144 -0.144)">
      <defs>
       <path id="DejaVuSans-4c" d="M 628 4666 
L 1259 4666 
L 1259 531 
L 3531 531 
L 3531 0 
L 628 0 
L 628 4666 
z
" transform="scale(0.015625)"/>
       <path id="DejaVuSans-6f" d="M 1959 3097 
Q 1497 3097 1228 2736 
Q 959 2375 959 1747 
Q 959 1119 1226 758 
Q 1494 397 1959 397 
Q 2419 397 2687 759 
Q 2956 1122 2956 1747 
Q 2956 2369 2687 2733 
Q 2419 3097 1959 3097 
z
M 1959 3584 
Q 2709 3584 3137 3096 
Q 3566 2609 3566 1747 
Q 3566 888 3137 398 
Q 2709 -91 1959 -91 
Q 1206 -91 779 398 
Q 353 888 353 1747 
Q 353 2609 779 3096 
Q 1206 3584 1959 3584 
z
" transform="scale(0.015625)"/>
       <path id="DejaVuSans-67" d="M 2906 1791 
Q 2906 2416 2648 2759 
Q 2391 3103 1925 3103 
Q 1463 3103 1205 2759 
Q 947 2416 947 1791 
Q 947 1169 1205 825 
Q 1463 481 1925 481 
Q 2391 481 2648 825 
Q 2906 1169 2906 1791 
z
M 3481 434 
Q 3481 -459 3084 -895 
Q 2688 -1331 1869 -1331 
Q 1566 -1331 1297 -1286 
Q 1028 -1241 775 -1147 
L 775 -588 
Q 1028 -725 1275 -790 
Q 1522 -856 1778 -856 
Q 2344 -856 2625 -561 
Q 2906 -266 2906 331 
L 2906 616 
Q 2728 306 2450 153 
Q 2172 0 1784 0 
Q 1141 0 747 490 
Q 353 981 353 1791 
Q 353 2603 747 3093 
Q 1141 3584 1784 3584 
Q 2172 3584 2450 3431 
Q 2728 3278 2906 2969 
L 2906 3500 
L 3481 3500 
L 3481 434 
z
" transform="scale(0.015625)"/>
       <path id="DejaVuSans-2d" d="M 313 2009 
L 1997 2009 
L 1997 1497 
L 313 1497 
L 313 2009 
z
" transform="scale(0.015625)"/>
       <path id="DejaVuSans-69" d="M 603 3500 
L 1178 3500 
L 1178 0 
L 603 0 
L 603 3500 
z
M 603 4863 
L 1178 4863 
L 1178 4134 
L 603 4134 
L 603 4863 
z
" transform="scale(0.015625)"/>
       <path id="DejaVuSans-6b" d="M 581 4863 
L 1159 4863 
L 1159 1991 
L 2875 3500 
L 3609 3500 
L 1753 1863 
L 3688 0 
L 2938 0 
L 1159 1709 
L 1159 0 
L 581 0 
L 581 4863 
z
" transform="scale(0.015625)"/>
       <path id="DejaVuSans-65" d="M 3597 1894 
L 3597 1613 
L 953 1613 
Q 991 1019 1311 708 
Q 1631 397 2203 397 
Q 2534 397 2845 478 
Q 3156 559 3463 722 
L 3463 178 
Q 3153 47 2828 -22 
Q 2503 -91 2169 -91 
Q 1331 -91 842 396 
Q 353 884 353 1716 
Q 353 2575 817 3079 
Q 1281 3584 2069 3584 
Q 2775 3584 3186 3129 
Q 3597 2675 3597 1894 
z
M 3022 2063 
Q 3016 2534 2758 2815 
Q 2500 3097 2075 3097 
Q 1594 3097 1305 2825 
Q 1016 2553 972 2059 
L 3022 2063 
z
" transform="scale(0.015625)"/>
       <path id="DejaVuSans-6c" d="M 603 4863 
L 1178 4863 
L 1178 0 
L 603 0 
L 603 4863 
z
" transform="scale(0.015625)"/>
       <path id="DejaVuSans-68" d="M 3513 2113 
L 3513 0 
L 2938 0 
L 2938 2094 
Q 2938 2591 2744 2837 
Q 2550 3084 2163 3084 
Q 1697 3084 1428 2787 
Q 1159 2491 1159 1978 
L 1159 0 
L 581 0 
L 581 4863 
L 1159 4863 
L 1159 2956 
Q 1366 3272 1645 3428 
Q 1925 3584 2291 3584 
Q 2894 3584 3203 3211 
Q 3513 2838 3513 2113 
z
" transform="scale(0.015625)"/>
       <path id="DejaVuSans-64" d="M 2906 2969 
L 2906 4863 
L 3481 4863 
L 3481 0 
L 2906 0 
L 2906 525 
Q 2725 213 2448 61 
Q 2172 -91 1784 -91 
Q 1150 -91 751 415 
Q 353 922 353 1747 
Q 353 2572 751 3078 
Q 1150 3584 1784 3584 
Q 2172 3584 2448 3432 
Q 2725 3281 2906 2969 
z
M 947 1747 
Q 947 1113 1208 752 
Q 1469 391 1925 391 
Q 2381 391 2643 752 
Q 2906 1113 2906 1747 
Q 2906 2381 2643 2742 
Q 2381 3103 1925 3103 
Q 1469 3103 1208 2742 
Q 947 2381 947 1747 
z
" transform="scale(0.015625)"/>
      </defs>
      <use xlink:href="#DejaVuSans-4c"/>
      <use xlink:href="#DejaVuSans-6f" x="53.962891"/>
      <use xlink:href="#DejaVuSans-67" x="115.144531"/>
      <use xlink:href="#DejaVuSans-2d" x="178.621094"/>
      <use xlink:href="#DejaVuSans-4c" x="214.705078"/>
      <use xlink:href="#DejaVuSans-69" x="270.417969"/>
      <use xlink:href="#DejaVuSans-6b" x="298.201172"/>
      <use xlink:href="#DejaVuSans-65" x="352.486328"/>
      <use xlink:href="#DejaVuSans-6c" x="414.009766"/>
      <use xlink:href="#DejaVuSans-69" x="441.792969"/>
      <use xlink:href="#DejaVuSans-68" x="469.576172"/>
      <use xlink:href="#DejaVuSans-6f" x="532.955078"/>
      <use xlink:href="#DejaVuSans-6f" x="594.136719"/>
      <use xlink:href="#DejaVuSans-64" x="655.318359"/>
     </g>
    </g>
   </g>
   <g id="matplotlib.axis_2">
    <g id="ytick_1">
     <g id="line2d_6">
      <defs>
       <path id="mf30568fcdb" d="M 0 0 
L -6 0 
" style="stroke: #000000; stroke-width: 1.25"/>
      </defs>
      <g>
       <use xlink:href="#mf30568fcdb" x="72.342" y="291.182727" style="stroke: #000000; stroke-width: 1.25"/>
      </g>
     </g>
     <g id="text_7">
      <!-- 0.00 -->
      <g transform="translate(33.451375 296.197696) scale(0.132 -0.132)">
       <defs>
        <path id="DejaVuSans-2e" d="M 684 794 
L 1344 794 
L 1344 0 
L 684 0 
L 684 794 
z
" transform="scale(0.015625)"/>
       </defs>
       <use xlink:href="#DejaVuSans-30"/>
       <use xlink:href="#DejaVuSans-2e" x="63.623047"/>
       <use xlink:href="#DejaVuSans-30" x="95.410156"/>
       <use xlink:href="#DejaVuSans-30" x="159.033203"/>
      </g>
     </g>
    </g>
    <g id="ytick_2">
     <g id="line2d_7">
      <g>
       <use xlink:href="#mf30568fcdb" x="72.342" y="236.020335" style="stroke: #000000; stroke-width: 1.25"/>
      </g>
     </g>
     <g id="text_8">
      <!-- 0.01 -->
      <g transform="translate(33.451375 241.035304) scale(0.132 -0.132)">
       <defs>
        <path id="DejaVuSans-31" d="M 794 531 
L 1825 531 
L 1825 4091 
L 703 3866 
L 703 4441 
L 1819 4666 
L 2450 4666 
L 2450 531 
L 3481 531 
L 3481 0 
L 794 0 
L 794 531 
z
" transform="scale(0.015625)"/>
       </defs>
       <use xlink:href="#DejaVuSans-30"/>
       <use xlink:href="#DejaVuSans-2e" x="63.623047"/>
       <use xlink:href="#DejaVuSans-30" x="95.410156"/>
       <use xlink:href="#DejaVuSans-31" x="159.033203"/>
      </g>
     </g>
    </g>
    <g id="ytick_3">
     <g id="line2d_8">
      <g>
       <use xlink:href="#mf30568fcdb" x="72.342" y="180.857942" style="stroke: #000000; stroke-width: 1.25"/>
      </g>
     </g>
     <g id="text_9">
      <!-- 0.02 -->
      <g transform="translate(33.451375 185.872911) scale(0.132 -0.132)">
       <use xlink:href="#DejaVuSans-30"/>
       <use xlink:href="#DejaVuSans-2e" x="63.623047"/>
       <use xlink:href="#DejaVuSans-30" x="95.410156"/>
       <use xlink:href="#DejaVuSans-32" x="159.033203"/>
      </g>
     </g>
    </g>
    <g id="ytick_4">
     <g id="line2d_9">
      <g>
       <use xlink:href="#mf30568fcdb" x="72.342" y="125.69555" style="stroke: #000000; stroke-width: 1.25"/>
      </g>
     </g>
     <g id="text_10">
      <!-- 0.03 -->
      <g transform="translate(33.451375 130.710519) scale(0.132 -0.132)">
       <defs>
        <path id="DejaVuSans-33" d="M 2597 2516 
Q 3050 2419 3304 2112 
Q 3559 1806 3559 1356 
Q 3559 666 3084 287 
Q 2609 -91 1734 -91 
Q 1441 -91 1130 -33 
Q 819 25 488 141 
L 488 750 
Q 750 597 1062 519 
Q 1375 441 1716 441 
Q 2309 441 2620 675 
Q 2931 909 2931 1356 
Q 2931 1769 2642 2001 
Q 2353 2234 1838 2234 
L 1294 2234 
L 1294 2753 
L 1863 2753 
Q 2328 2753 2575 2939 
Q 2822 3125 2822 3475 
Q 2822 3834 2567 4026 
Q 2313 4219 1838 4219 
Q 1578 4219 1281 4162 
Q 984 4106 628 3988 
L 628 4550 
Q 988 4650 1302 4700 
Q 1616 4750 1894 4750 
Q 2613 4750 3031 4423 
Q 3450 4097 3450 3541 
Q 3450 3153 3228 2886 
Q 3006 2619 2597 2516 
z
" transform="scale(0.015625)"/>
       </defs>
       <use xlink:href="#DejaVuSans-30"/>
       <use xlink:href="#DejaVuSans-2e" x="63.623047"/>
       <use xlink:href="#DejaVuSans-30" x="95.410156"/>
       <use xlink:href="#DejaVuSans-33" x="159.033203"/>
      </g>
     </g>
    </g>
    <g id="ytick_5">
     <g id="line2d_10">
      <g>
       <use xlink:href="#mf30568fcdb" x="72.342" y="70.533158" style="stroke: #000000; stroke-width: 1.25"/>
      </g>
     </g>
     <g id="text_11">
      <!-- 0.04 -->
      <g transform="translate(33.451375 75.548126) scale(0.132 -0.132)">
       <use xlink:href="#DejaVuSans-30"/>
       <use xlink:href="#DejaVuSans-2e" x="63.623047"/>
       <use xlink:href="#DejaVuSans-30" x="95.410156"/>
       <use xlink:href="#DejaVuSans-34" x="159.033203"/>
      </g>
     </g>
    </g>
    <g id="text_12">
     <!-- Density -->
     <g transform="translate(26.456625 187.302375) rotate(-90) scale(0.144 -0.144)">
      <defs>
       <path id="DejaVuSans-44" d="M 1259 4147 
L 1259 519 
L 2022 519 
Q 2988 519 3436 956 
Q 3884 1394 3884 2338 
Q 3884 3275 3436 3711 
Q 2988 4147 2022 4147 
L 1259 4147 
z
M 628 4666 
L 1925 4666 
Q 3281 4666 3915 4102 
Q 4550 3538 4550 2338 
Q 4550 1131 3912 565 
Q 3275 0 1925 0 
L 628 0 
L 628 4666 
z
" transform="scale(0.015625)"/>
       <path id="DejaVuSans-6e" d="M 3513 2113 
L 3513 0 
L 2938 0 
L 2938 2094 
Q 2938 2591 2744 2837 
Q 2550 3084 2163 3084 
Q 1697 3084 1428 2787 
Q 1159 2491 1159 1978 
L 1159 0 
L 581 0 
L 581 3500 
L 1159 3500 
L 1159 2956 
Q 1366 3272 1645 3428 
Q 1925 3584 2291 3584 
Q 2894 3584 3203 3211 
Q 3513 2838 3513 2113 
z
" transform="scale(0.015625)"/>
       <path id="DejaVuSans-73" d="M 2834 3397 
L 2834 2853 
Q 2591 2978 2328 3040 
Q 2066 3103 1784 3103 
Q 1356 3103 1142 2972 
Q 928 2841 928 2578 
Q 928 2378 1081 2264 
Q 1234 2150 1697 2047 
L 1894 2003 
Q 2506 1872 2764 1633 
Q 3022 1394 3022 966 
Q 3022 478 2636 193 
Q 2250 -91 1575 -91 
Q 1294 -91 989 -36 
Q 684 19 347 128 
L 347 722 
Q 666 556 975 473 
Q 1284 391 1588 391 
Q 1994 391 2212 530 
Q 2431 669 2431 922 
Q 2431 1156 2273 1281 
Q 2116 1406 1581 1522 
L 1381 1569 
Q 847 1681 609 1914 
Q 372 2147 372 2553 
Q 372 3047 722 3315 
Q 1072 3584 1716 3584 
Q 2034 3584 2315 3537 
Q 2597 3491 2834 3397 
z
" transform="scale(0.015625)"/>
       <path id="DejaVuSans-74" d="M 1172 4494 
L 1172 3500 
L 2356 3500 
L 2356 3053 
L 1172 3053 
L 1172 1153 
Q 1172 725 1289 603 
Q 1406 481 1766 481 
L 2356 481 
L 2356 0 
L 1766 0 
Q 1100 0 847 248 
Q 594 497 594 1153 
L 594 3053 
L 172 3053 
L 172 3500 
L 594 3500 
L 594 4494 
L 1172 4494 
z
" transform="scale(0.015625)"/>
       <path id="DejaVuSans-79" d="M 2059 -325 
Q 1816 -950 1584 -1140 
Q 1353 -1331 966 -1331 
L 506 -1331 
L 506 -850 
L 844 -850 
Q 1081 -850 1212 -737 
Q 1344 -625 1503 -206 
L 1606 56 
L 191 3500 
L 800 3500 
L 1894 763 
L 2988 3500 
L 3597 3500 
L 2059 -325 
z
" transform="scale(0.015625)"/>
      </defs>
      <use xlink:href="#DejaVuSans-44"/>
      <use xlink:href="#DejaVuSans-65" x="77.001953"/>
      <use xlink:href="#DejaVuSans-6e" x="138.525391"/>
      <use xlink:href="#DejaVuSans-73" x="201.904297"/>
      <use xlink:href="#DejaVuSans-69" x="254.003906"/>
      <use xlink:href="#DejaVuSans-74" x="281.787109"/>
      <use xlink:href="#DejaVuSans-79" x="320.996094"/>
     </g>
    </g>
   </g>
   <g id="line2d_11">
    <path d="M 84.710455 290.502394 
L 93.81099 290.396014 
L 126.903845 289.533706 
L 134.349737 289.07843 
L 140.140987 288.489487 
L 145.104915 287.755687 
L 150.896164 286.668561 
L 160.824021 284.55252 
L 165.787949 283.319486 
L 170.751877 281.83418 
L 176.543127 279.819167 
L 183.989019 277.240005 
L 188.125626 276.05507 
L 192.262233 275.108079 
L 203.017411 272.879164 
L 205.499375 272.092626 
L 207.981339 271.084612 
L 210.463303 269.818938 
L 212.945268 268.282762 
L 215.427232 266.487608 
L 218.736517 263.744878 
L 222.045803 260.685203 
L 226.18241 256.518507 
L 230.319016 252.016892 
L 234.455623 247.151282 
L 237.764909 242.913663 
L 240.246873 239.438632 
L 242.728837 235.589295 
L 245.210801 231.214508 
L 246.865444 227.917821 
L 248.520087 224.251789 
L 250.174729 220.162828 
L 251.829372 215.603777 
L 253.484015 210.537511 
L 255.138658 204.939707 
L 257.620622 195.52867 
L 260.102586 184.930193 
L 262.58455 173.236701 
L 265.066514 160.590874 
L 268.3758 142.562791 
L 274.167049 109.319661 
L 278.303656 86.030197 
L 280.78562 73.140615 
L 282.440263 65.322214 
L 284.094906 58.331863 
L 285.749548 52.360594 
L 287.404191 47.603777 
L 288.231513 45.741025 
L 289.058834 44.252849 
L 289.886155 43.160969 
L 290.713477 42.485602 
L 291.540798 42.245145 
L 292.368119 42.455862 
L 293.195441 43.131598 
L 294.022762 44.283519 
L 294.850084 45.919879 
L 295.677405 48.045834 
L 296.504726 50.663277 
L 297.332048 53.77073 
L 298.98669 61.432446 
L 300.641333 70.949591 
L 302.295976 82.18543 
L 303.950619 94.950152 
L 306.432583 116.429693 
L 309.741868 147.855984 
L 314.705797 195.462426 
L 317.187761 217.060696 
L 318.842403 230.028373 
L 320.497046 241.646576 
L 322.151689 251.818153 
L 323.806332 260.515976 
L 325.460974 267.777233 
L 327.115617 273.692974 
L 328.77026 278.394432 
L 330.424903 282.037997 
L 332.079545 284.790637 
L 332.079545 284.790637 
" clip-path="url(#p6c42facb29)" style="fill: none; stroke: #1f77b4; stroke-width: 2; stroke-linecap: square"/>
   </g>
   <g id="line2d_12">
    <path d="M 84.710455 291.182727 
L 155.860093 291.090223 
L 160.824021 290.880739 
L 164.133306 290.571491 
L 167.442592 290.024288 
L 169.924556 289.389186 
L 172.40652 288.503084 
L 174.888484 287.316432 
L 177.370448 285.790885 
L 179.852413 283.907874 
L 182.334377 281.676176 
L 184.816341 279.136823 
L 188.125626 275.405452 
L 194.744197 267.80029 
L 197.226161 265.32626 
L 198.880804 263.904089 
L 200.535447 262.70568 
L 202.19009 261.760233 
L 203.844732 261.088679 
L 205.499375 260.701589 
L 207.154018 260.597122 
L 208.808661 260.759217 
L 210.463303 261.156258 
L 212.945268 262.083579 
L 217.909196 264.225301 
L 219.563839 264.694232 
L 221.218481 264.88117 
L 222.873124 264.698088 
L 223.700445 264.443892 
L 224.527767 264.070759 
L 225.355088 263.572506 
L 227.009731 262.183642 
L 228.664374 260.260171 
L 230.319016 257.81324 
L 231.973659 254.882613 
L 233.628302 251.534965 
L 236.110266 245.933259 
L 242.728837 230.32465 
L 245.210801 225.286238 
L 246.865444 222.386735 
L 248.520087 219.884353 
L 250.174729 217.763912 
L 251.829372 215.972419 
L 254.311336 213.695237 
L 257.620622 210.694612 
L 259.275265 208.820633 
L 260.929907 206.441296 
L 262.58455 203.362768 
L 264.239193 199.402943 
L 265.893836 194.402637 
L 267.548478 188.236489 
L 269.203121 180.823001 
L 270.857764 172.133163 
L 272.512407 162.197108 
L 274.167049 151.108289 
L 276.649013 132.676519 
L 280.78562 99.28818 
L 284.094906 73.19918 
L 285.749548 61.408627 
L 287.404191 50.961433 
L 289.058834 42.20567 
L 289.886155 38.558755 
L 290.713477 35.443706 
L 291.540798 32.888863 
L 292.368119 30.918108 
L 293.195441 29.550603 
L 294.022762 28.800594 
L 294.850084 28.677273 
L 295.677405 29.184711 
L 296.504726 30.321865 
L 297.332048 32.082638 
L 298.159369 34.45601 
L 298.98669 37.426236 
L 299.814012 40.973086 
L 301.468655 49.695178 
L 303.123297 60.383288 
L 304.77794 72.749997 
L 307.259904 93.738144 
L 310.56919 124.472536 
L 315.533118 171.163508 
L 318.015082 192.786735 
L 320.497046 212.391561 
L 322.151689 224.144099 
L 323.806332 234.766391 
L 325.460974 244.235583 
L 327.115617 252.561878 
L 328.77026 259.78345 
L 330.424903 265.961037 
L 332.079545 271.172433 
L 332.079545 271.172433 
" clip-path="url(#p6c42facb29)" style="fill: none; stroke: #2ca02c; stroke-width: 2; stroke-linecap: square"/>
   </g>
   <g id="line2d_13">
    <path d="M 84.710455 290.851965 
L 90.501704 290.717577 
L 98.774918 290.466948 
L 110.357417 290.31083 
L 117.80331 289.833656 
L 123.594559 289.591568 
L 128.558487 289.344547 
L 131.040452 289.032234 
L 134.349737 288.352278 
L 139.313665 286.99815 
L 145.104915 285.489578 
L 151.723486 283.834258 
L 154.20545 282.958196 
L 156.687414 281.778516 
L 159.9967 279.871156 
L 164.133306 277.461989 
L 166.615271 276.251621 
L 168.269913 275.655534 
L 169.924556 275.272425 
L 171.579199 275.083352 
L 179.852413 274.572552 
L 182.334377 274.06937 
L 184.816341 273.311304 
L 190.60759 271.149017 
L 193.089555 270.044871 
L 194.744197 269.085144 
L 196.39884 267.888974 
L 198.053483 266.449449 
L 199.708126 264.776074 
L 201.362768 262.874948 
L 203.844732 259.609986 
L 207.154018 254.687962 
L 210.463303 249.731483 
L 213.772589 245.255461 
L 216.254553 241.963598 
L 217.909196 239.474831 
L 219.563839 236.493543 
L 221.218481 232.836989 
L 222.873124 228.420066 
L 224.527767 223.298741 
L 227.837052 211.872151 
L 230.319016 203.551378 
L 231.973659 198.610005 
L 234.455623 192.143563 
L 236.937587 186.003997 
L 238.59223 181.340877 
L 240.246873 175.655649 
L 241.901516 168.562663 
L 243.556158 159.810327 
L 245.210801 149.271258 
L 246.865444 136.945981 
L 248.520087 123.035294 
L 253.484015 79.388677 
L 254.311336 73.635399 
L 255.138658 68.901003 
L 255.965979 65.39264 
L 256.7933 63.276061 
L 257.620622 62.654945 
L 258.447943 63.553094 
L 259.275265 65.902687 
L 260.102586 69.5413 
L 260.929907 74.219254 
L 265.066514 101.165578 
L 265.893836 104.949934 
L 266.721157 107.686994 
L 267.548478 109.32781 
L 268.3758 109.910916 
L 269.203121 109.548827 
L 270.030442 108.408596 
L 270.857764 106.689248 
L 272.512407 102.335327 
L 274.167049 97.936855 
L 274.994371 96.036962 
L 275.821692 94.43555 
L 276.649013 93.174938 
L 277.476335 92.2857 
L 278.303656 91.798731 
L 279.130978 91.755048 
L 279.958299 92.211439 
L 280.78562 93.240907 
L 281.612942 94.927851 
L 282.440263 97.358803 
L 283.267584 100.610264 
L 284.094906 104.735549 
L 284.922227 109.752616 
L 286.57687 122.305159 
L 288.231513 137.46016 
L 291.540798 169.365361 
L 293.195441 182.82609 
L 294.022762 188.455806 
L 294.850084 193.310563 
L 295.677405 197.429455 
L 296.504726 200.898804 
L 298.159369 206.397677 
L 301.468655 215.69912 
L 303.123297 221.399583 
L 304.77794 228.426613 
L 306.432583 236.720315 
L 312.223832 268.216907 
L 313.878475 275.331418 
L 315.533118 280.894879 
L 316.360439 283.091006 
L 317.187761 284.92232 
L 318.015082 286.420187 
L 318.842403 287.621798 
L 319.669725 288.567113 
L 320.497046 289.296263 
L 321.324368 289.847519 
L 322.97901 290.552066 
L 324.633653 290.908472 
L 327.115617 291.11612 
L 332.079545 291.180694 
L 332.079545 291.180694 
" clip-path="url(#p6c42facb29)" style="fill: none; stroke: #ff7f0e; stroke-width: 2; stroke-linecap: square"/>
   </g>
   <g id="patch_3">
    <path d="M 72.342 304.308 
L 72.342 15.552 
" style="fill: none; stroke: #000000; stroke-width: 1.25; stroke-linejoin: miter; stroke-linecap: square"/>
   </g>
   <g id="patch_4">
    <path d="M 72.342 304.308 
L 344.448 304.308 
" style="fill: none; stroke: #000000; stroke-width: 1.25; stroke-linejoin: miter; stroke-linecap: square"/>
   </g>
   <g id="legend_1">
    <g id="line2d_14">
     <path d="M 84.222 32.841938 
L 97.422 32.841938 
L 110.622 32.841938 
" style="fill: none; stroke: #1f77b4; stroke-width: 2; stroke-linecap: square"/>
    </g>
    <g id="text_13">
     <!-- Avian Only (n=2765) -->
     <g transform="translate(121.182 37.461938) scale(0.132 -0.132)">
      <defs>
       <path id="DejaVuSans-41" d="M 2188 4044 
L 1331 1722 
L 3047 1722 
L 2188 4044 
z
M 1831 4666 
L 2547 4666 
L 4325 0 
L 3669 0 
L 3244 1197 
L 1141 1197 
L 716 0 
L 50 0 
L 1831 4666 
z
" transform="scale(0.015625)"/>
       <path id="DejaVuSans-76" d="M 191 3500 
L 800 3500 
L 1894 563 
L 2988 3500 
L 3597 3500 
L 2284 0 
L 1503 0 
L 191 3500 
z
" transform="scale(0.015625)"/>
       <path id="DejaVuSans-61" d="M 2194 1759 
Q 1497 1759 1228 1600 
Q 959 1441 959 1056 
Q 959 750 1161 570 
Q 1363 391 1709 391 
Q 2188 391 2477 730 
Q 2766 1069 2766 1631 
L 2766 1759 
L 2194 1759 
z
M 3341 1997 
L 3341 0 
L 2766 0 
L 2766 531 
Q 2569 213 2275 61 
Q 1981 -91 1556 -91 
Q 1019 -91 701 211 
Q 384 513 384 1019 
Q 384 1609 779 1909 
Q 1175 2209 1959 2209 
L 2766 2209 
L 2766 2266 
Q 2766 2663 2505 2880 
Q 2244 3097 1772 3097 
Q 1472 3097 1187 3025 
Q 903 2953 641 2809 
L 641 3341 
Q 956 3463 1253 3523 
Q 1550 3584 1831 3584 
Q 2591 3584 2966 3190 
Q 3341 2797 3341 1997 
z
" transform="scale(0.015625)"/>
       <path id="DejaVuSans-20" transform="scale(0.015625)"/>
       <path id="DejaVuSans-4f" d="M 2522 4238 
Q 1834 4238 1429 3725 
Q 1025 3213 1025 2328 
Q 1025 1447 1429 934 
Q 1834 422 2522 422 
Q 3209 422 3611 934 
Q 4013 1447 4013 2328 
Q 4013 3213 3611 3725 
Q 3209 4238 2522 4238 
z
M 2522 4750 
Q 3503 4750 4090 4092 
Q 4678 3434 4678 2328 
Q 4678 1225 4090 567 
Q 3503 -91 2522 -91 
Q 1538 -91 948 565 
Q 359 1222 359 2328 
Q 359 3434 948 4092 
Q 1538 4750 2522 4750 
z
" transform="scale(0.015625)"/>
       <path id="DejaVuSans-28" d="M 1984 4856 
Q 1566 4138 1362 3434 
Q 1159 2731 1159 2009 
Q 1159 1288 1364 580 
Q 1569 -128 1984 -844 
L 1484 -844 
Q 1016 -109 783 600 
Q 550 1309 550 2009 
Q 550 2706 781 3412 
Q 1013 4119 1484 4856 
L 1984 4856 
z
" transform="scale(0.015625)"/>
       <path id="DejaVuSans-3d" d="M 678 2906 
L 4684 2906 
L 4684 2381 
L 678 2381 
L 678 2906 
z
M 678 1631 
L 4684 1631 
L 4684 1100 
L 678 1100 
L 678 1631 
z
" transform="scale(0.015625)"/>
       <path id="DejaVuSans-37" d="M 525 4666 
L 3525 4666 
L 3525 4397 
L 1831 0 
L 1172 0 
L 2766 4134 
L 525 4134 
L 525 4666 
z
" transform="scale(0.015625)"/>
       <path id="DejaVuSans-35" d="M 691 4666 
L 3169 4666 
L 3169 4134 
L 1269 4134 
L 1269 2991 
Q 1406 3038 1543 3061 
Q 1681 3084 1819 3084 
Q 2600 3084 3056 2656 
Q 3513 2228 3513 1497 
Q 3513 744 3044 326 
Q 2575 -91 1722 -91 
Q 1428 -91 1123 -41 
Q 819 9 494 109 
L 494 744 
Q 775 591 1075 516 
Q 1375 441 1709 441 
Q 2250 441 2565 725 
Q 2881 1009 2881 1497 
Q 2881 1984 2565 2268 
Q 2250 2553 1709 2553 
Q 1456 2553 1204 2497 
Q 953 2441 691 2322 
L 691 4666 
z
" transform="scale(0.015625)"/>
       <path id="DejaVuSans-29" d="M 513 4856 
L 1013 4856 
Q 1481 4119 1714 3412 
Q 1947 2706 1947 2009 
Q 1947 1309 1714 600 
Q 1481 -109 1013 -844 
L 513 -844 
Q 928 -128 1133 580 
Q 1338 1288 1338 2009 
Q 1338 2731 1133 3434 
Q 928 4138 513 4856 
z
" transform="scale(0.015625)"/>
      </defs>
      <use xlink:href="#DejaVuSans-41"/>
      <use xlink:href="#DejaVuSans-76" x="62.533203"/>
      <use xlink:href="#DejaVuSans-69" x="121.712891"/>
      <use xlink:href="#DejaVuSans-61" x="149.496094"/>
      <use xlink:href="#DejaVuSans-6e" x="210.775391"/>
      <use xlink:href="#DejaVuSans-20" x="274.154297"/>
      <use xlink:href="#DejaVuSans-4f" x="305.941406"/>
      <use xlink:href="#DejaVuSans-6e" x="384.652344"/>
      <use xlink:href="#DejaVuSans-6c" x="448.03125"/>
      <use xlink:href="#DejaVuSans-79" x="475.814453"/>
      <use xlink:href="#DejaVuSans-20" x="534.994141"/>
      <use xlink:href="#DejaVuSans-28" x="566.78125"/>
      <use xlink:href="#DejaVuSans-6e" x="605.794922"/>
      <use xlink:href="#DejaVuSans-3d" x="669.173828"/>
      <use xlink:href="#DejaVuSans-32" x="752.962891"/>
      <use xlink:href="#DejaVuSans-37" x="816.585938"/>
      <use xlink:href="#DejaVuSans-36" x="880.208984"/>
      <use xlink:href="#DejaVuSans-35" x="943.832031"/>
      <use xlink:href="#DejaVuSans-29" x="1007.455078"/>
     </g>
    </g>
    <g id="line2d_15">
     <path d="M 84.222 52.217063 
L 97.422 52.217063 
L 110.622 52.217063 
" style="fill: none; stroke: #2ca02c; stroke-width: 2; stroke-linecap: square"/>
    </g>
    <g id="text_14">
     <!-- Avian + Other (n=77) -->
     <g transform="translate(121.182 56.837063) scale(0.132 -0.132)">
      <defs>
       <path id="DejaVuSans-2b" d="M 2944 4013 
L 2944 2272 
L 4684 2272 
L 4684 1741 
L 2944 1741 
L 2944 0 
L 2419 0 
L 2419 1741 
L 678 1741 
L 678 2272 
L 2419 2272 
L 2419 4013 
L 2944 4013 
z
" transform="scale(0.015625)"/>
       <path id="DejaVuSans-72" d="M 2631 2963 
Q 2534 3019 2420 3045 
Q 2306 3072 2169 3072 
Q 1681 3072 1420 2755 
Q 1159 2438 1159 1844 
L 1159 0 
L 581 0 
L 581 3500 
L 1159 3500 
L 1159 2956 
Q 1341 3275 1631 3429 
Q 1922 3584 2338 3584 
Q 2397 3584 2469 3576 
Q 2541 3569 2628 3553 
L 2631 2963 
z
" transform="scale(0.015625)"/>
      </defs>
      <use xlink:href="#DejaVuSans-41"/>
      <use xlink:href="#DejaVuSans-76" x="62.533203"/>
      <use xlink:href="#DejaVuSans-69" x="121.712891"/>
      <use xlink:href="#DejaVuSans-61" x="149.496094"/>
      <use xlink:href="#DejaVuSans-6e" x="210.775391"/>
      <use xlink:href="#DejaVuSans-20" x="274.154297"/>
      <use xlink:href="#DejaVuSans-2b" x="305.941406"/>
      <use xlink:href="#DejaVuSans-20" x="389.730469"/>
      <use xlink:href="#DejaVuSans-4f" x="421.517578"/>
      <use xlink:href="#DejaVuSans-74" x="500.228516"/>
      <use xlink:href="#DejaVuSans-68" x="539.4375"/>
      <use xlink:href="#DejaVuSans-65" x="602.816406"/>
      <use xlink:href="#DejaVuSans-72" x="664.339844"/>
      <use xlink:href="#DejaVuSans-20" x="705.453125"/>
      <use xlink:href="#DejaVuSans-28" x="737.240234"/>
      <use xlink:href="#DejaVuSans-6e" x="776.253906"/>
      <use xlink:href="#DejaVuSans-3d" x="839.632812"/>
      <use xlink:href="#DejaVuSans-37" x="923.421875"/>
      <use xlink:href="#DejaVuSans-37" x="987.044922"/>
      <use xlink:href="#DejaVuSans-29" x="1050.667969"/>
     </g>
    </g>
    <g id="line2d_16">
     <path d="M 84.222 71.592188 
L 97.422 71.592188 
L 110.622 71.592188 
" style="fill: none; stroke: #ff7f0e; stroke-width: 2; stroke-linecap: square"/>
    </g>
    <g id="text_15">
     <!-- Non-Avian (n=32222) -->
     <g transform="translate(121.182 76.212188) scale(0.132 -0.132)">
      <defs>
       <path id="DejaVuSans-4e" d="M 628 4666 
L 1478 4666 
L 3547 763 
L 3547 4666 
L 4159 4666 
L 4159 0 
L 3309 0 
L 1241 3903 
L 1241 0 
L 628 0 
L 628 4666 
z
" transform="scale(0.015625)"/>
      </defs>
      <use xlink:href="#DejaVuSans-4e"/>
      <use xlink:href="#DejaVuSans-6f" x="74.804688"/>
      <use xlink:href="#DejaVuSans-6e" x="135.986328"/>
      <use xlink:href="#DejaVuSans-2d" x="199.365234"/>
      <use xlink:href="#DejaVuSans-41" x="233.199219"/>
      <use xlink:href="#DejaVuSans-76" x="295.732422"/>
      <use xlink:href="#DejaVuSans-69" x="354.912109"/>
      <use xlink:href="#DejaVuSans-61" x="382.695312"/>
      <use xlink:href="#DejaVuSans-6e" x="443.974609"/>
      <use xlink:href="#DejaVuSans-20" x="507.353516"/>
      <use xlink:href="#DejaVuSans-28" x="539.140625"/>
      <use xlink:href="#DejaVuSans-6e" x="578.154297"/>
      <use xlink:href="#DejaVuSans-3d" x="641.533203"/>
      <use xlink:href="#DejaVuSans-33" x="725.322266"/>
      <use xlink:href="#DejaVuSans-32" x="788.945312"/>
      <use xlink:href="#DejaVuSans-32" x="852.568359"/>
      <use xlink:href="#DejaVuSans-32" x="916.191406"/>
      <use xlink:href="#DejaVuSans-32" x="979.814453"/>
      <use xlink:href="#DejaVuSans-29" x="1043.4375"/>
     </g>
    </g>
   </g>
  </g>
 </g>
 <defs>
  <clipPath id="p6c42facb29">
   <rect x="72.342" y="15.552" width="272.106" height="288.756"/>
  </clipPath>
 </defs>
</svg>
