<?xml version="1.0" encoding="utf-8" standalone="no"?>
<!DOCTYPE svg PUBLIC "-//W3C//DTD SVG 1.1//EN"
  "http://www.w3.org/Graphics/SVG/1.1/DTD/svg11.dtd">
<svg xmlns:xlink="http://www.w3.org/1999/xlink" width="343.333125pt" height="343.367625pt" viewBox="0 0 343.333125 343.367625" xmlns="http://www.w3.org/2000/svg" version="1.1">
 <metadata>
  <rdf:RDF xmlns:dc="http://purl.org/dc/elements/1.1/" xmlns:cc="http://creativecommons.org/ns#" xmlns:rdf="http://www.w3.org/1999/02/22-rdf-syntax-ns#">
   <cc:Work>
    <dc:type rdf:resource="http://purl.org/dc/dcmitype/StillImage"/>
    <dc:date>2025-08-01T10:03:55.591180</dc:date>
    <dc:format>image/svg+xml</dc:format>
    <dc:creator>
     <cc:Agent>
      <dc:title>Matplotlib v3.9.4, https://matplotlib.org/</dc:title>
     </cc:Agent>
    </dc:creator>
   </cc:Work>
  </rdf:RDF>
 </metadata>
 <defs>
  <style type="text/css">*{stroke-linejoin: round; stroke-linecap: butt}</style>
 </defs>
 <g id="figure_1">
  <g id="patch_1">
   <path d="M 0 343.367625 
L 343.333125 343.367625 
L 343.333125 0 
L 0 0 
L 0 343.367625 
z
" style="fill: none"/>
  </g>
  <g id="axes_1">
   <g id="patch_2">
    <path d="M 64.027125 295.956 
L 336.133125 295.956 
L 336.133125 7.2 
L 64.027125 7.2 
L 64.027125 295.956 
z
" style="fill: none"/>
   </g>
   <g id="matplotlib.axis_1">
    <g id="xtick_1">
     <g id="line2d_1">
      <defs>
       <path id="m276641dd29" d="M 0 0 
L 0 6 
" style="stroke: #000000; stroke-width: 1.25"/>
      </defs>
      <g>
       <use xlink:href="#m276641dd29" x="102.457205" y="295.956" style="stroke: #000000; stroke-width: 1.25"/>
      </g>
     </g>
     <g id="text_1">
      <!-- −80 -->
      <g transform="translate(88.528111 315.485937) scale(0.132 -0.132)">
       <defs>
        <path id="DejaVuSans-2212" d="M 678 2272 
L 4684 2272 
L 4684 1741 
L 678 1741 
L 678 2272 
z
" transform="scale(0.015625)"/>
        <path id="DejaVuSans-38" d="M 2034 2216 
Q 1584 2216 1326 1975 
Q 1069 1734 1069 1313 
Q 1069 891 1326 650 
Q 1584 409 2034 409 
Q 2484 409 2743 651 
Q 3003 894 3003 1313 
Q 3003 1734 2745 1975 
Q 2488 2216 2034 2216 
z
M 1403 2484 
Q 997 2584 770 2862 
Q 544 3141 544 3541 
Q 544 4100 942 4425 
Q 1341 4750 2034 4750 
Q 2731 4750 3128 4425 
Q 3525 4100 3525 3541 
Q 3525 3141 3298 2862 
Q 3072 2584 2669 2484 
Q 3125 2378 3379 2068 
Q 3634 1759 3634 1313 
Q 3634 634 3220 271 
Q 2806 -91 2034 -91 
Q 1263 -91 848 271 
Q 434 634 434 1313 
Q 434 1759 690 2068 
Q 947 2378 1403 2484 
z
M 1172 3481 
Q 1172 3119 1398 2916 
Q 1625 2713 2034 2713 
Q 2441 2713 2670 2916 
Q 2900 3119 2900 3481 
Q 2900 3844 2670 4047 
Q 2441 4250 2034 4250 
Q 1625 4250 1398 4047 
Q 1172 3844 1172 3481 
z
" transform="scale(0.015625)"/>
        <path id="DejaVuSans-30" d="M 2034 4250 
Q 1547 4250 1301 3770 
Q 1056 3291 1056 2328 
Q 1056 1369 1301 889 
Q 1547 409 2034 409 
Q 2525 409 2770 889 
Q 3016 1369 3016 2328 
Q 3016 3291 2770 3770 
Q 2525 4250 2034 4250 
z
M 2034 4750 
Q 2819 4750 3233 4129 
Q 3647 3509 3647 2328 
Q 3647 1150 3233 529 
Q 2819 -91 2034 -91 
Q 1250 -91 836 529 
Q 422 1150 422 2328 
Q 422 3509 836 4129 
Q 1250 4750 2034 4750 
z
" transform="scale(0.015625)"/>
       </defs>
       <use xlink:href="#DejaVuSans-2212"/>
       <use xlink:href="#DejaVuSans-38" x="83.789062"/>
       <use xlink:href="#DejaVuSans-30" x="147.412109"/>
      </g>
     </g>
    </g>
    <g id="xtick_2">
     <g id="line2d_2">
      <g>
       <use xlink:href="#m276641dd29" x="154.580455" y="295.956" style="stroke: #000000; stroke-width: 1.25"/>
      </g>
     </g>
     <g id="text_2">
      <!-- −60 -->
      <g transform="translate(140.651361 315.485937) scale(0.132 -0.132)">
       <defs>
        <path id="DejaVuSans-36" d="M 2113 2584 
Q 1688 2584 1439 2293 
Q 1191 2003 1191 1497 
Q 1191 994 1439 701 
Q 1688 409 2113 409 
Q 2538 409 2786 701 
Q 3034 994 3034 1497 
Q 3034 2003 2786 2293 
Q 2538 2584 2113 2584 
z
M 3366 4563 
L 3366 3988 
Q 3128 4100 2886 4159 
Q 2644 4219 2406 4219 
Q 1781 4219 1451 3797 
Q 1122 3375 1075 2522 
Q 1259 2794 1537 2939 
Q 1816 3084 2150 3084 
Q 2853 3084 3261 2657 
Q 3669 2231 3669 1497 
Q 3669 778 3244 343 
Q 2819 -91 2113 -91 
Q 1303 -91 875 529 
Q 447 1150 447 2328 
Q 447 3434 972 4092 
Q 1497 4750 2381 4750 
Q 2619 4750 2861 4703 
Q 3103 4656 3366 4563 
z
" transform="scale(0.015625)"/>
       </defs>
       <use xlink:href="#DejaVuSans-2212"/>
       <use xlink:href="#DejaVuSans-36" x="83.789062"/>
       <use xlink:href="#DejaVuSans-30" x="147.412109"/>
      </g>
     </g>
    </g>
    <g id="xtick_3">
     <g id="line2d_3">
      <g>
       <use xlink:href="#m276641dd29" x="206.703705" y="295.956" style="stroke: #000000; stroke-width: 1.25"/>
      </g>
     </g>
     <g id="text_3">
      <!-- −40 -->
      <g transform="translate(192.774611 315.485937) scale(0.132 -0.132)">
       <defs>
        <path id="DejaVuSans-34" d="M 2419 4116 
L 825 1625 
L 2419 1625 
L 2419 4116 
z
M 2253 4666 
L 3047 4666 
L 3047 1625 
L 3713 1625 
L 3713 1100 
L 3047 1100 
L 3047 0 
L 2419 0 
L 2419 1100 
L 313 1100 
L 313 1709 
L 2253 4666 
z
" transform="scale(0.015625)"/>
       </defs>
       <use xlink:href="#DejaVuSans-2212"/>
       <use xlink:href="#DejaVuSans-34" x="83.789062"/>
       <use xlink:href="#DejaVuSans-30" x="147.412109"/>
      </g>
     </g>
    </g>
    <g id="xtick_4">
     <g id="line2d_4">
      <g>
       <use xlink:href="#m276641dd29" x="258.826955" y="295.956" style="stroke: #000000; stroke-width: 1.25"/>
      </g>
     </g>
     <g id="text_4">
      <!-- −20 -->
      <g transform="translate(244.897861 315.485937) scale(0.132 -0.132)">
       <defs>
        <path id="DejaVuSans-32" d="M 1228 531 
L 3431 531 
L 3431 0 
L 469 0 
L 469 531 
Q 828 903 1448 1529 
Q 2069 2156 2228 2338 
Q 2531 2678 2651 2914 
Q 2772 3150 2772 3378 
Q 2772 3750 2511 3984 
Q 2250 4219 1831 4219 
Q 1534 4219 1204 4116 
Q 875 4013 500 3803 
L 500 4441 
Q 881 4594 1212 4672 
Q 1544 4750 1819 4750 
Q 2544 4750 2975 4387 
Q 3406 4025 3406 3419 
Q 3406 3131 3298 2873 
Q 3191 2616 2906 2266 
Q 2828 2175 2409 1742 
Q 1991 1309 1228 531 
z
" transform="scale(0.015625)"/>
       </defs>
       <use xlink:href="#DejaVuSans-2212"/>
       <use xlink:href="#DejaVuSans-32" x="83.789062"/>
       <use xlink:href="#DejaVuSans-30" x="147.412109"/>
      </g>
     </g>
    </g>
    <g id="xtick_5">
     <g id="line2d_5">
      <g>
       <use xlink:href="#m276641dd29" x="310.950205" y="295.956" style="stroke: #000000; stroke-width: 1.25"/>
      </g>
     </g>
     <g id="text_5">
      <!-- 0 -->
      <g transform="translate(306.750955 315.485937) scale(0.132 -0.132)">
       <use xlink:href="#DejaVuSans-30"/>
      </g>
     </g>
    </g>
    <g id="text_6">
     <!-- Log-Likelihood -->
     <g transform="translate(148.3245 333.172875) scale(0.144 -0.144)">
      <defs>
       <path id="DejaVuSans-4c" d="M 628 4666 
L 1259 4666 
L 1259 531 
L 3531 531 
L 3531 0 
L 628 0 
L 628 4666 
z
" transform="scale(0.015625)"/>
       <path id="DejaVuSans-6f" d="M 1959 3097 
Q 1497 3097 1228 2736 
Q 959 2375 959 1747 
Q 959 1119 1226 758 
Q 1494 397 1959 397 
Q 2419 397 2687 759 
Q 2956 1122 2956 1747 
Q 2956 2369 2687 2733 
Q 2419 3097 1959 3097 
z
M 1959 3584 
Q 2709 3584 3137 3096 
Q 3566 2609 3566 1747 
Q 3566 888 3137 398 
Q 2709 -91 1959 -91 
Q 1206 -91 779 398 
Q 353 888 353 1747 
Q 353 2609 779 3096 
Q 1206 3584 1959 3584 
z
" transform="scale(0.015625)"/>
       <path id="DejaVuSans-67" d="M 2906 1791 
Q 2906 2416 2648 2759 
Q 2391 3103 1925 3103 
Q 1463 3103 1205 2759 
Q 947 2416 947 1791 
Q 947 1169 1205 825 
Q 1463 481 1925 481 
Q 2391 481 2648 825 
Q 2906 1169 2906 1791 
z
M 3481 434 
Q 3481 -459 3084 -895 
Q 2688 -1331 1869 -1331 
Q 1566 -1331 1297 -1286 
Q 1028 -1241 775 -1147 
L 775 -588 
Q 1028 -725 1275 -790 
Q 1522 -856 1778 -856 
Q 2344 -856 2625 -561 
Q 2906 -266 2906 331 
L 2906 616 
Q 2728 306 2450 153 
Q 2172 0 1784 0 
Q 1141 0 747 490 
Q 353 981 353 1791 
Q 353 2603 747 3093 
Q 1141 3584 1784 3584 
Q 2172 3584 2450 3431 
Q 2728 3278 2906 2969 
L 2906 3500 
L 3481 3500 
L 3481 434 
z
" transform="scale(0.015625)"/>
       <path id="DejaVuSans-2d" d="M 313 2009 
L 1997 2009 
L 1997 1497 
L 313 1497 
L 313 2009 
z
" transform="scale(0.015625)"/>
       <path id="DejaVuSans-69" d="M 603 3500 
L 1178 3500 
L 1178 0 
L 603 0 
L 603 3500 
z
M 603 4863 
L 1178 4863 
L 1178 4134 
L 603 4134 
L 603 4863 
z
" transform="scale(0.015625)"/>
       <path id="DejaVuSans-6b" d="M 581 4863 
L 1159 4863 
L 1159 1991 
L 2875 3500 
L 3609 3500 
L 1753 1863 
L 3688 0 
L 2938 0 
L 1159 1709 
L 1159 0 
L 581 0 
L 581 4863 
z
" transform="scale(0.015625)"/>
       <path id="DejaVuSans-65" d="M 3597 1894 
L 3597 1613 
L 953 1613 
Q 991 1019 1311 708 
Q 1631 397 2203 397 
Q 2534 397 2845 478 
Q 3156 559 3463 722 
L 3463 178 
Q 3153 47 2828 -22 
Q 2503 -91 2169 -91 
Q 1331 -91 842 396 
Q 353 884 353 1716 
Q 353 2575 817 3079 
Q 1281 3584 2069 3584 
Q 2775 3584 3186 3129 
Q 3597 2675 3597 1894 
z
M 3022 2063 
Q 3016 2534 2758 2815 
Q 2500 3097 2075 3097 
Q 1594 3097 1305 2825 
Q 1016 2553 972 2059 
L 3022 2063 
z
" transform="scale(0.015625)"/>
       <path id="DejaVuSans-6c" d="M 603 4863 
L 1178 4863 
L 1178 0 
L 603 0 
L 603 4863 
z
" transform="scale(0.015625)"/>
       <path id="DejaVuSans-68" d="M 3513 2113 
L 3513 0 
L 2938 0 
L 2938 2094 
Q 2938 2591 2744 2837 
Q 2550 3084 2163 3084 
Q 1697 3084 1428 2787 
Q 1159 2491 1159 1978 
L 1159 0 
L 581 0 
L 581 4863 
L 1159 4863 
L 1159 2956 
Q 1366 3272 1645 3428 
Q 1925 3584 2291 3584 
Q 2894 3584 3203 3211 
Q 3513 2838 3513 2113 
z
" transform="scale(0.015625)"/>
       <path id="DejaVuSans-64" d="M 2906 2969 
L 2906 4863 
L 3481 4863 
L 3481 0 
L 2906 0 
L 2906 525 
Q 2725 213 2448 61 
Q 2172 -91 1784 -91 
Q 1150 -91 751 415 
Q 353 922 353 1747 
Q 353 2572 751 3078 
Q 1150 3584 1784 3584 
Q 2172 3584 2448 3432 
Q 2725 3281 2906 2969 
z
M 947 1747 
Q 947 1113 1208 752 
Q 1469 391 1925 391 
Q 2381 391 2643 752 
Q 2906 1113 2906 1747 
Q 2906 2381 2643 2742 
Q 2381 3103 1925 3103 
Q 1469 3103 1208 2742 
Q 947 2381 947 1747 
z
" transform="scale(0.015625)"/>
      </defs>
      <use xlink:href="#DejaVuSans-4c"/>
      <use xlink:href="#DejaVuSans-6f" x="53.962891"/>
      <use xlink:href="#DejaVuSans-67" x="115.144531"/>
      <use xlink:href="#DejaVuSans-2d" x="178.621094"/>
      <use xlink:href="#DejaVuSans-4c" x="214.705078"/>
      <use xlink:href="#DejaVuSans-69" x="270.417969"/>
      <use xlink:href="#DejaVuSans-6b" x="298.201172"/>
      <use xlink:href="#DejaVuSans-65" x="352.486328"/>
      <use xlink:href="#DejaVuSans-6c" x="414.009766"/>
      <use xlink:href="#DejaVuSans-69" x="441.792969"/>
      <use xlink:href="#DejaVuSans-68" x="469.576172"/>
      <use xlink:href="#DejaVuSans-6f" x="532.955078"/>
      <use xlink:href="#DejaVuSans-6f" x="594.136719"/>
      <use xlink:href="#DejaVuSans-64" x="655.318359"/>
     </g>
    </g>
   </g>
   <g id="matplotlib.axis_2">
    <g id="ytick_1">
     <g id="line2d_6">
      <defs>
       <path id="mf13080501b" d="M 0 0 
L -6 0 
" style="stroke: #000000; stroke-width: 1.25"/>
      </defs>
      <g>
       <use xlink:href="#mf13080501b" x="64.027125" y="282.830727" style="stroke: #000000; stroke-width: 1.25"/>
      </g>
     </g>
     <g id="text_7">
      <!-- 0.00 -->
      <g transform="translate(25.1365 287.845696) scale(0.132 -0.132)">
       <defs>
        <path id="DejaVuSans-2e" d="M 684 794 
L 1344 794 
L 1344 0 
L 684 0 
L 684 794 
z
" transform="scale(0.015625)"/>
       </defs>
       <use xlink:href="#DejaVuSans-30"/>
       <use xlink:href="#DejaVuSans-2e" x="63.623047"/>
       <use xlink:href="#DejaVuSans-30" x="95.410156"/>
       <use xlink:href="#DejaVuSans-30" x="159.033203"/>
      </g>
     </g>
    </g>
    <g id="ytick_2">
     <g id="line2d_7">
      <g>
       <use xlink:href="#mf13080501b" x="64.027125" y="219.091557" style="stroke: #000000; stroke-width: 1.25"/>
      </g>
     </g>
     <g id="text_8">
      <!-- 0.02 -->
      <g transform="translate(25.1365 224.106526) scale(0.132 -0.132)">
       <use xlink:href="#DejaVuSans-30"/>
       <use xlink:href="#DejaVuSans-2e" x="63.623047"/>
       <use xlink:href="#DejaVuSans-30" x="95.410156"/>
       <use xlink:href="#DejaVuSans-32" x="159.033203"/>
      </g>
     </g>
    </g>
    <g id="ytick_3">
     <g id="line2d_8">
      <g>
       <use xlink:href="#mf13080501b" x="64.027125" y="155.352387" style="stroke: #000000; stroke-width: 1.25"/>
      </g>
     </g>
     <g id="text_9">
      <!-- 0.04 -->
      <g transform="translate(25.1365 160.367356) scale(0.132 -0.132)">
       <use xlink:href="#DejaVuSans-30"/>
       <use xlink:href="#DejaVuSans-2e" x="63.623047"/>
       <use xlink:href="#DejaVuSans-30" x="95.410156"/>
       <use xlink:href="#DejaVuSans-34" x="159.033203"/>
      </g>
     </g>
    </g>
    <g id="ytick_4">
     <g id="line2d_9">
      <g>
       <use xlink:href="#mf13080501b" x="64.027125" y="91.613217" style="stroke: #000000; stroke-width: 1.25"/>
      </g>
     </g>
     <g id="text_10">
      <!-- 0.06 -->
      <g transform="translate(25.1365 96.628186) scale(0.132 -0.132)">
       <use xlink:href="#DejaVuSans-30"/>
       <use xlink:href="#DejaVuSans-2e" x="63.623047"/>
       <use xlink:href="#DejaVuSans-30" x="95.410156"/>
       <use xlink:href="#DejaVuSans-36" x="159.033203"/>
      </g>
     </g>
    </g>
    <g id="ytick_5">
     <g id="line2d_10">
      <g>
       <use xlink:href="#mf13080501b" x="64.027125" y="27.874047" style="stroke: #000000; stroke-width: 1.25"/>
      </g>
     </g>
     <g id="text_11">
      <!-- 0.08 -->
      <g transform="translate(25.1365 32.889016) scale(0.132 -0.132)">
       <use xlink:href="#DejaVuSans-30"/>
       <use xlink:href="#DejaVuSans-2e" x="63.623047"/>
       <use xlink:href="#DejaVuSans-30" x="95.410156"/>
       <use xlink:href="#DejaVuSans-38" x="159.033203"/>
      </g>
     </g>
    </g>
    <g id="text_12">
     <!-- Density -->
     <g transform="translate(18.14175 178.950375) rotate(-90) scale(0.144 -0.144)">
      <defs>
       <path id="DejaVuSans-44" d="M 1259 4147 
L 1259 519 
L 2022 519 
Q 2988 519 3436 956 
Q 3884 1394 3884 2338 
Q 3884 3275 3436 3711 
Q 2988 4147 2022 4147 
L 1259 4147 
z
M 628 4666 
L 1925 4666 
Q 3281 4666 3915 4102 
Q 4550 3538 4550 2338 
Q 4550 1131 3912 565 
Q 3275 0 1925 0 
L 628 0 
L 628 4666 
z
" transform="scale(0.015625)"/>
       <path id="DejaVuSans-6e" d="M 3513 2113 
L 3513 0 
L 2938 0 
L 2938 2094 
Q 2938 2591 2744 2837 
Q 2550 3084 2163 3084 
Q 1697 3084 1428 2787 
Q 1159 2491 1159 1978 
L 1159 0 
L 581 0 
L 581 3500 
L 1159 3500 
L 1159 2956 
Q 1366 3272 1645 3428 
Q 1925 3584 2291 3584 
Q 2894 3584 3203 3211 
Q 3513 2838 3513 2113 
z
" transform="scale(0.015625)"/>
       <path id="DejaVuSans-73" d="M 2834 3397 
L 2834 2853 
Q 2591 2978 2328 3040 
Q 2066 3103 1784 3103 
Q 1356 3103 1142 2972 
Q 928 2841 928 2578 
Q 928 2378 1081 2264 
Q 1234 2150 1697 2047 
L 1894 2003 
Q 2506 1872 2764 1633 
Q 3022 1394 3022 966 
Q 3022 478 2636 193 
Q 2250 -91 1575 -91 
Q 1294 -91 989 -36 
Q 684 19 347 128 
L 347 722 
Q 666 556 975 473 
Q 1284 391 1588 391 
Q 1994 391 2212 530 
Q 2431 669 2431 922 
Q 2431 1156 2273 1281 
Q 2116 1406 1581 1522 
L 1381 1569 
Q 847 1681 609 1914 
Q 372 2147 372 2553 
Q 372 3047 722 3315 
Q 1072 3584 1716 3584 
Q 2034 3584 2315 3537 
Q 2597 3491 2834 3397 
z
" transform="scale(0.015625)"/>
       <path id="DejaVuSans-74" d="M 1172 4494 
L 1172 3500 
L 2356 3500 
L 2356 3053 
L 1172 3053 
L 1172 1153 
Q 1172 725 1289 603 
Q 1406 481 1766 481 
L 2356 481 
L 2356 0 
L 1766 0 
Q 1100 0 847 248 
Q 594 497 594 1153 
L 594 3053 
L 172 3053 
L 172 3500 
L 594 3500 
L 594 4494 
L 1172 4494 
z
" transform="scale(0.015625)"/>
       <path id="DejaVuSans-79" d="M 2059 -325 
Q 1816 -950 1584 -1140 
Q 1353 -1331 966 -1331 
L 506 -1331 
L 506 -850 
L 844 -850 
Q 1081 -850 1212 -737 
Q 1344 -625 1503 -206 
L 1606 56 
L 191 3500 
L 800 3500 
L 1894 763 
L 2988 3500 
L 3597 3500 
L 2059 -325 
z
" transform="scale(0.015625)"/>
      </defs>
      <use xlink:href="#DejaVuSans-44"/>
      <use xlink:href="#DejaVuSans-65" x="77.001953"/>
      <use xlink:href="#DejaVuSans-6e" x="138.525391"/>
      <use xlink:href="#DejaVuSans-73" x="201.904297"/>
      <use xlink:href="#DejaVuSans-69" x="254.003906"/>
      <use xlink:href="#DejaVuSans-74" x="281.787109"/>
      <use xlink:href="#DejaVuSans-79" x="320.996094"/>
     </g>
    </g>
   </g>
   <g id="line2d_11">
    <path d="M 76.39558 282.830373 
L 97.078614 282.734557 
L 105.351828 282.446297 
L 126.034862 281.430778 
L 134.308076 280.878246 
L 138.444683 280.863882 
L 148.372539 281.023457 
L 151.681825 280.808377 
L 154.99111 280.402617 
L 159.127717 279.673479 
L 164.091645 278.571887 
L 172.364859 276.649273 
L 175.674144 276.13432 
L 178.156109 275.942188 
L 180.638073 275.937125 
L 183.120037 276.11241 
L 186.429322 276.578009 
L 193.047893 277.867598 
L 196.357179 278.407254 
L 199.666464 278.717859 
L 202.97575 278.768061 
L 207.939678 278.528476 
L 212.903606 278.334101 
L 223.658784 278.163188 
L 226.96807 277.669664 
L 231.104677 276.759852 
L 242.687176 273.981034 
L 245.16914 273.019948 
L 247.651104 271.810132 
L 250.96039 269.91914 
L 257.578961 265.8114 
L 260.060925 263.990512 
L 261.715567 262.5037 
L 263.37021 260.673153 
L 265.024853 258.381702 
L 266.679496 255.510705 
L 268.334138 251.943224 
L 269.988781 247.563311 
L 271.643424 242.251923 
L 273.298067 235.881206 
L 274.952709 228.30975 
L 276.607352 219.381771 
L 278.261995 208.933057 
L 279.916638 196.806155 
L 281.57128 182.876605 
L 283.225923 167.090941 
L 284.880566 149.515062 
L 287.36253 120.378034 
L 292.326458 60.229497 
L 293.981101 43.452585 
L 294.808422 36.39791 
L 295.635744 30.446597 
L 296.463065 25.745706 
L 297.290386 22.42491 
L 298.117708 20.591385 
L 298.945029 20.325273 
L 299.772351 21.675983 
L 300.599672 24.659547 
L 301.426993 29.257184 
L 302.254315 35.415163 
L 303.081636 43.046004 
L 304.736279 62.223646 
L 306.390922 85.537087 
L 308.872886 124.883256 
L 312.182171 177.284139 
L 313.836814 200.545439 
L 315.491457 220.742156 
L 317.146099 237.524937 
L 318.800742 250.887213 
L 320.455385 261.087189 
L 321.282706 265.131319 
L 322.110028 268.553957 
L 322.937349 271.42037 
L 323.76467 273.795842 
L 323.76467 273.795842 
" clip-path="url(#p3a473bc7b8)" style="fill: none; stroke: #1f77b4; stroke-width: 2; stroke-linecap: square"/>
   </g>
   <g id="line2d_12">
    <path d="M 76.39558 282.830482 
L 91.287364 282.722759 
L 98.733257 282.398229 
L 103.697185 282.239995 
L 107.833792 282.304178 
L 123.552898 282.815524 
L 148.372539 282.830706 
L 166.573609 282.720793 
L 170.710216 282.493023 
L 174.846823 282.022508 
L 178.156109 281.433582 
L 181.465394 280.655617 
L 185.602001 279.426357 
L 190.565929 277.64541 
L 193.875215 276.507029 
L 196.357179 275.887935 
L 198.839143 275.579028 
L 201.321107 275.558321 
L 205.457714 275.679069 
L 207.112357 275.561141 
L 208.766999 275.247203 
L 210.421642 274.698451 
L 212.076285 273.902576 
L 213.730928 272.871756 
L 216.212892 270.957669 
L 219.522177 267.972329 
L 223.658784 264.161899 
L 226.140748 262.153033 
L 227.795391 261.024215 
L 229.450034 260.101482 
L 231.104677 259.400485 
L 232.759319 258.915928 
L 235.241283 258.518596 
L 239.37789 258.102957 
L 241.032533 257.717242 
L 242.687176 257.042229 
L 244.341819 255.991888 
L 245.996461 254.51187 
L 247.651104 252.583609 
L 249.305747 250.220798 
L 250.96039 247.45876 
L 252.615032 244.339013 
L 255.096996 239.050557 
L 257.578961 233.019589 
L 259.233603 228.519699 
L 260.888246 223.562869 
L 262.542889 218.090843 
L 265.024853 208.871997 
L 267.506817 198.597197 
L 274.125388 170.310388 
L 276.607352 161.13921 
L 279.089316 153.070478 
L 282.398602 143.402276 
L 289.017173 124.998544 
L 290.671815 120.934588 
L 292.326458 117.547836 
L 293.15378 116.212309 
L 293.981101 115.174654 
L 294.808422 114.480601 
L 295.635744 114.17608 
L 296.463065 114.306482 
L 297.290386 114.915814 
L 298.117708 116.045691 
L 298.945029 117.734125 
L 299.772351 120.014108 
L 300.599672 122.912008 
L 301.426993 126.445836 
L 302.254315 130.623479 
L 303.908957 140.881328 
L 305.5636 153.489671 
L 307.218243 168.02107 
L 310.527528 200.133583 
L 313.009493 223.663017 
L 314.664135 237.654285 
L 316.318778 249.676786 
L 317.973421 259.485854 
L 319.628064 267.083346 
L 320.455385 270.109194 
L 321.282706 272.668351 
L 322.110028 274.804461 
L 322.937349 276.564067 
L 323.76467 277.994476 
L 323.76467 277.994476 
" clip-path="url(#p3a473bc7b8)" style="fill: none; stroke: #aec7e8; stroke-width: 2; stroke-linecap: square"/>
   </g>
   <g id="line2d_13">
    <path d="M 76.39558 282.219765 
L 83.841472 282.309334 
L 89.632722 282.164606 
L 95.423971 281.780943 
L 101.215221 281.140072 
L 107.00647 280.267502 
L 116.934327 278.481458 
L 124.380219 277.220447 
L 130.171469 276.453357 
L 135.962718 275.930299 
L 141.753968 275.641332 
L 149.19986 275.508667 
L 162.437002 275.30029 
L 169.882895 274.932459 
L 194.702536 273.294779 
L 199.666464 272.753124 
L 203.803071 272.077503 
L 207.112357 271.346164 
L 210.421642 270.423276 
L 213.730928 269.301946 
L 217.867535 267.632985 
L 222.004141 265.707483 
L 226.96807 263.150387 
L 234.413962 259.043998 
L 241.032533 255.170263 
L 244.341819 253.033776 
L 247.651104 250.620994 
L 250.133068 248.540034 
L 252.615032 246.147346 
L 255.096996 243.370215 
L 257.578961 240.140984 
L 260.060925 236.403749 
L 262.542889 232.12116 
L 265.024853 227.280769 
L 267.506817 221.900418 
L 269.988781 216.032191 
L 273.298067 207.607125 
L 283.225923 181.684876 
L 285.707887 176.120313 
L 287.36253 172.851304 
L 289.017173 170.011575 
L 290.671815 167.66251 
L 292.326458 165.859738 
L 293.15378 165.178615 
L 293.981101 164.651481 
L 294.808422 164.28295 
L 295.635744 164.076987 
L 296.463065 164.036865 
L 297.290386 164.165135 
L 298.117708 164.463592 
L 298.945029 164.933249 
L 299.772351 165.574319 
L 300.599672 166.386196 
L 302.254315 168.51582 
L 303.908957 171.300761 
L 305.5636 174.706687 
L 307.218243 178.686951 
L 308.872886 183.18369 
L 311.35485 190.747109 
L 313.836814 199.059464 
L 317.973421 213.807593 
L 322.937349 231.388085 
L 323.76467 234.17601 
L 323.76467 234.17601 
" clip-path="url(#p3a473bc7b8)" style="fill: none; stroke: #ff7f0e; stroke-width: 2; stroke-linecap: square"/>
   </g>
   <g id="line2d_14">
    <path d="M 76.39558 282.830727 
L 127.689505 282.728699 
L 133.480754 282.469009 
L 137.617361 282.060515 
L 140.926647 281.540753 
L 145.063254 280.631507 
L 156.645753 277.753478 
L 159.127717 277.475488 
L 161.609681 277.427916 
L 164.091645 277.616939 
L 166.573609 278.018063 
L 169.882895 278.793919 
L 178.98343 281.158531 
L 182.292715 281.753667 
L 185.602001 282.126492 
L 188.911286 282.267252 
L 192.220572 282.159928 
L 194.702536 281.893367 
L 197.1845 281.438375 
L 199.666464 280.764711 
L 202.148428 279.84679 
L 204.630393 278.674067 
L 207.112357 277.261296 
L 210.421642 275.090655 
L 217.040213 270.605178 
L 219.522177 269.217561 
L 222.004141 268.12819 
L 224.486106 267.361046 
L 226.96807 266.875791 
L 234.413962 265.779763 
L 236.068605 265.240691 
L 237.723248 264.457005 
L 239.37789 263.370919 
L 241.032533 261.932512 
L 242.687176 260.101758 
L 244.341819 257.849784 
L 245.996461 255.159307 
L 247.651104 252.024268 
L 249.305747 248.448755 
L 250.96039 244.445382 
L 253.442354 237.681316 
L 255.924318 230.080507 
L 258.406282 221.734229 
L 261.715567 209.605919 
L 265.024853 196.538864 
L 269.988781 175.770196 
L 275.780031 151.545381 
L 278.261995 142.045651 
L 279.916638 136.310655 
L 281.57128 131.220405 
L 283.225923 126.923256 
L 284.880566 123.565874 
L 285.707887 122.283158 
L 286.535209 121.285838 
L 287.36253 120.588393 
L 288.189851 120.203749 
L 289.017173 120.143047 
L 289.844494 120.415421 
L 290.671815 121.02781 
L 291.499137 121.984779 
L 292.326458 123.288388 
L 293.15378 124.938076 
L 293.981101 126.930589 
L 295.635744 131.917447 
L 297.290386 138.168719 
L 298.945029 145.56287 
L 300.599672 153.941482 
L 303.081636 167.936181 
L 307.218243 193.254532 
L 310.527528 213.325658 
L 313.009493 227.260885 
L 315.491457 239.710019 
L 317.146099 247.035989 
L 318.800742 253.531612 
L 320.455385 259.18988 
L 322.110028 264.032436 
L 323.76467 268.104317 
L 323.76467 268.104317 
" clip-path="url(#p3a473bc7b8)" style="fill: none; stroke: #ffbb78; stroke-width: 2; stroke-linecap: square"/>
   </g>
   <g id="line2d_15">
    <path d="M 76.39558 282.830727 
L 140.926647 282.721151 
L 148.372539 282.474112 
L 153.336467 282.105884 
L 157.473074 281.581716 
L 160.78236 280.958493 
L 164.091645 280.099114 
L 167.400931 278.951089 
L 169.882895 277.871352 
L 172.364859 276.585764 
L 174.846823 275.084062 
L 177.328787 273.364115 
L 180.638073 270.746998 
L 183.947358 267.810258 
L 188.911286 263.023024 
L 194.702536 257.459569 
L 198.011822 254.646358 
L 200.493786 252.855596 
L 202.97575 251.417105 
L 204.630393 250.682375 
L 206.285035 250.141957 
L 207.939678 249.803943 
L 209.594321 249.671779 
L 211.248964 249.743962 
L 212.903606 250.013869 
L 214.558249 250.469732 
L 217.040213 251.464134 
L 219.522177 252.761584 
L 222.831463 254.792048 
L 227.795391 257.908599 
L 230.277355 259.215926 
L 231.931998 259.904017 
L 233.586641 260.400619 
L 235.241283 260.66926 
L 236.895926 260.675744 
L 238.550569 260.388655 
L 240.205212 259.779832 
L 241.859854 258.824801 
L 243.514497 257.503184 
L 245.16914 255.799083 
L 246.823783 253.701449 
L 248.478425 251.204449 
L 250.133068 248.307813 
L 251.787711 245.017174 
L 253.442354 241.344382 
L 255.924318 235.160642 
L 258.406282 228.250448 
L 261.715567 218.128808 
L 266.679496 201.837935 
L 270.816103 188.358467 
L 273.298067 180.831324 
L 275.780031 174.044283 
L 277.434673 170.056306 
L 279.089316 166.579793 
L 280.743959 163.678189 
L 282.398602 161.406867 
L 283.225923 160.522258 
L 284.053244 159.811516 
L 284.880566 159.278606 
L 285.707887 158.926727 
L 286.535209 158.758282 
L 287.36253 158.774855 
L 288.189851 158.977193 
L 289.017173 159.365198 
L 289.844494 159.937917 
L 290.671815 160.693549 
L 291.499137 161.629449 
L 293.15378 164.027359 
L 294.808422 167.094361 
L 296.463065 170.781279 
L 298.117708 175.028382 
L 299.772351 179.767034 
L 302.254315 187.629796 
L 305.5636 199.092637 
L 314.664135 231.410367 
L 317.146099 239.356103 
L 319.628064 246.626021 
L 322.110028 253.135714 
L 323.76467 257.031593 
L 323.76467 257.031593 
" clip-path="url(#p3a473bc7b8)" style="fill: none; stroke: #2ca02c; stroke-width: 2; stroke-linecap: square"/>
   </g>
   <g id="patch_3">
    <path d="M 64.027125 295.956 
L 64.027125 7.2 
" style="fill: none; stroke: #000000; stroke-width: 1.25; stroke-linejoin: miter; stroke-linecap: square"/>
   </g>
   <g id="patch_4">
    <path d="M 64.027125 295.956 
L 336.133125 295.956 
" style="fill: none; stroke: #000000; stroke-width: 1.25; stroke-linejoin: miter; stroke-linecap: square"/>
   </g>
   <g id="legend_1">
    <g id="line2d_16">
     <path d="M 75.907125 24.489938 
L 89.107125 24.489938 
L 102.307125 24.489938 
" style="fill: none; stroke: #1f77b4; stroke-width: 2; stroke-linecap: square"/>
    </g>
    <g id="text_13">
     <!-- H1 (n=2242) -->
     <g transform="translate(112.867125 29.109938) scale(0.132 -0.132)">
      <defs>
       <path id="DejaVuSans-48" d="M 628 4666 
L 1259 4666 
L 1259 2753 
L 3553 2753 
L 3553 4666 
L 4184 4666 
L 4184 0 
L 3553 0 
L 3553 2222 
L 1259 2222 
L 1259 0 
L 628 0 
L 628 4666 
z
" transform="scale(0.015625)"/>
       <path id="DejaVuSans-31" d="M 794 531 
L 1825 531 
L 1825 4091 
L 703 3866 
L 703 4441 
L 1819 4666 
L 2450 4666 
L 2450 531 
L 3481 531 
L 3481 0 
L 794 0 
L 794 531 
z
" transform="scale(0.015625)"/>
       <path id="DejaVuSans-20" transform="scale(0.015625)"/>
       <path id="DejaVuSans-28" d="M 1984 4856 
Q 1566 4138 1362 3434 
Q 1159 2731 1159 2009 
Q 1159 1288 1364 580 
Q 1569 -128 1984 -844 
L 1484 -844 
Q 1016 -109 783 600 
Q 550 1309 550 2009 
Q 550 2706 781 3412 
Q 1013 4119 1484 4856 
L 1984 4856 
z
" transform="scale(0.015625)"/>
       <path id="DejaVuSans-3d" d="M 678 2906 
L 4684 2906 
L 4684 2381 
L 678 2381 
L 678 2906 
z
M 678 1631 
L 4684 1631 
L 4684 1100 
L 678 1100 
L 678 1631 
z
" transform="scale(0.015625)"/>
       <path id="DejaVuSans-29" d="M 513 4856 
L 1013 4856 
Q 1481 4119 1714 3412 
Q 1947 2706 1947 2009 
Q 1947 1309 1714 600 
Q 1481 -109 1013 -844 
L 513 -844 
Q 928 -128 1133 580 
Q 1338 1288 1338 2009 
Q 1338 2731 1133 3434 
Q 928 4138 513 4856 
z
" transform="scale(0.015625)"/>
      </defs>
      <use xlink:href="#DejaVuSans-48"/>
      <use xlink:href="#DejaVuSans-31" x="75.195312"/>
      <use xlink:href="#DejaVuSans-20" x="138.818359"/>
      <use xlink:href="#DejaVuSans-28" x="170.605469"/>
      <use xlink:href="#DejaVuSans-6e" x="209.619141"/>
      <use xlink:href="#DejaVuSans-3d" x="272.998047"/>
      <use xlink:href="#DejaVuSans-32" x="356.787109"/>
      <use xlink:href="#DejaVuSans-32" x="420.410156"/>
      <use xlink:href="#DejaVuSans-34" x="484.033203"/>
      <use xlink:href="#DejaVuSans-32" x="547.65625"/>
      <use xlink:href="#DejaVuSans-29" x="611.279297"/>
     </g>
    </g>
    <g id="line2d_17">
     <path d="M 75.907125 43.865063 
L 89.107125 43.865063 
L 102.307125 43.865063 
" style="fill: none; stroke: #aec7e8; stroke-width: 2; stroke-linecap: square"/>
    </g>
    <g id="text_14">
     <!-- H3 (n=788) -->
     <g transform="translate(112.867125 48.485063) scale(0.132 -0.132)">
      <defs>
       <path id="DejaVuSans-33" d="M 2597 2516 
Q 3050 2419 3304 2112 
Q 3559 1806 3559 1356 
Q 3559 666 3084 287 
Q 2609 -91 1734 -91 
Q 1441 -91 1130 -33 
Q 819 25 488 141 
L 488 750 
Q 750 597 1062 519 
Q 1375 441 1716 441 
Q 2309 441 2620 675 
Q 2931 909 2931 1356 
Q 2931 1769 2642 2001 
Q 2353 2234 1838 2234 
L 1294 2234 
L 1294 2753 
L 1863 2753 
Q 2328 2753 2575 2939 
Q 2822 3125 2822 3475 
Q 2822 3834 2567 4026 
Q 2313 4219 1838 4219 
Q 1578 4219 1281 4162 
Q 984 4106 628 3988 
L 628 4550 
Q 988 4650 1302 4700 
Q 1616 4750 1894 4750 
Q 2613 4750 3031 4423 
Q 3450 4097 3450 3541 
Q 3450 3153 3228 2886 
Q 3006 2619 2597 2516 
z
" transform="scale(0.015625)"/>
       <path id="DejaVuSans-37" d="M 525 4666 
L 3525 4666 
L 3525 4397 
L 1831 0 
L 1172 0 
L 2766 4134 
L 525 4134 
L 525 4666 
z
" transform="scale(0.015625)"/>
      </defs>
      <use xlink:href="#DejaVuSans-48"/>
      <use xlink:href="#DejaVuSans-33" x="75.195312"/>
      <use xlink:href="#DejaVuSans-20" x="138.818359"/>
      <use xlink:href="#DejaVuSans-28" x="170.605469"/>
      <use xlink:href="#DejaVuSans-6e" x="209.619141"/>
      <use xlink:href="#DejaVuSans-3d" x="272.998047"/>
      <use xlink:href="#DejaVuSans-37" x="356.787109"/>
      <use xlink:href="#DejaVuSans-38" x="420.410156"/>
      <use xlink:href="#DejaVuSans-38" x="484.033203"/>
      <use xlink:href="#DejaVuSans-29" x="547.65625"/>
     </g>
    </g>
    <g id="line2d_18">
     <path d="M 75.907125 63.240187 
L 89.107125 63.240187 
L 102.307125 63.240187 
" style="fill: none; stroke: #ff7f0e; stroke-width: 2; stroke-linecap: square"/>
    </g>
    <g id="text_15">
     <!-- HX (n=153) -->
     <g transform="translate(112.867125 67.860187) scale(0.132 -0.132)">
      <defs>
       <path id="DejaVuSans-58" d="M 403 4666 
L 1081 4666 
L 2241 2931 
L 3406 4666 
L 4084 4666 
L 2584 2425 
L 4184 0 
L 3506 0 
L 2194 1984 
L 872 0 
L 191 0 
L 1856 2491 
L 403 4666 
z
" transform="scale(0.015625)"/>
       <path id="DejaVuSans-35" d="M 691 4666 
L 3169 4666 
L 3169 4134 
L 1269 4134 
L 1269 2991 
Q 1406 3038 1543 3061 
Q 1681 3084 1819 3084 
Q 2600 3084 3056 2656 
Q 3513 2228 3513 1497 
Q 3513 744 3044 326 
Q 2575 -91 1722 -91 
Q 1428 -91 1123 -41 
Q 819 9 494 109 
L 494 744 
Q 775 591 1075 516 
Q 1375 441 1709 441 
Q 2250 441 2565 725 
Q 2881 1009 2881 1497 
Q 2881 1984 2565 2268 
Q 2250 2553 1709 2553 
Q 1456 2553 1204 2497 
Q 953 2441 691 2322 
L 691 4666 
z
" transform="scale(0.015625)"/>
      </defs>
      <use xlink:href="#DejaVuSans-48"/>
      <use xlink:href="#DejaVuSans-58" x="75.195312"/>
      <use xlink:href="#DejaVuSans-20" x="143.701172"/>
      <use xlink:href="#DejaVuSans-28" x="175.488281"/>
      <use xlink:href="#DejaVuSans-6e" x="214.501953"/>
      <use xlink:href="#DejaVuSans-3d" x="277.880859"/>
      <use xlink:href="#DejaVuSans-31" x="361.669922"/>
      <use xlink:href="#DejaVuSans-35" x="425.292969"/>
      <use xlink:href="#DejaVuSans-33" x="488.916016"/>
      <use xlink:href="#DejaVuSans-29" x="552.539062"/>
     </g>
    </g>
    <g id="line2d_19">
     <path d="M 75.907125 82.615313 
L 89.107125 82.615313 
L 102.307125 82.615313 
" style="fill: none; stroke: #ffbb78; stroke-width: 2; stroke-linecap: square"/>
    </g>
    <g id="text_16">
     <!-- H5 (n=52) -->
     <g transform="translate(112.867125 87.235313) scale(0.132 -0.132)">
      <use xlink:href="#DejaVuSans-48"/>
      <use xlink:href="#DejaVuSans-35" x="75.195312"/>
      <use xlink:href="#DejaVuSans-20" x="138.818359"/>
      <use xlink:href="#DejaVuSans-28" x="170.605469"/>
      <use xlink:href="#DejaVuSans-6e" x="209.619141"/>
      <use xlink:href="#DejaVuSans-3d" x="272.998047"/>
      <use xlink:href="#DejaVuSans-35" x="356.787109"/>
      <use xlink:href="#DejaVuSans-32" x="420.410156"/>
      <use xlink:href="#DejaVuSans-29" x="484.033203"/>
     </g>
    </g>
    <g id="line2d_20">
     <path d="M 75.907125 101.990437 
L 89.107125 101.990437 
L 102.307125 101.990437 
" style="fill: none; stroke: #2ca02c; stroke-width: 2; stroke-linecap: square"/>
    </g>
    <g id="text_17">
     <!-- H7 (n=15) -->
     <g transform="translate(112.867125 106.610437) scale(0.132 -0.132)">
      <use xlink:href="#DejaVuSans-48"/>
      <use xlink:href="#DejaVuSans-37" x="75.195312"/>
      <use xlink:href="#DejaVuSans-20" x="138.818359"/>
      <use xlink:href="#DejaVuSans-28" x="170.605469"/>
      <use xlink:href="#DejaVuSans-6e" x="209.619141"/>
      <use xlink:href="#DejaVuSans-3d" x="272.998047"/>
      <use xlink:href="#DejaVuSans-31" x="356.787109"/>
      <use xlink:href="#DejaVuSans-35" x="420.410156"/>
      <use xlink:href="#DejaVuSans-29" x="484.033203"/>
     </g>
    </g>
   </g>
  </g>
 </g>
 <defs>
  <clipPath id="p3a473bc7b8">
   <rect x="64.027125" y="7.2" width="272.106" height="288.756"/>
  </clipPath>
 </defs>
</svg>
