<?xml version="1.0" encoding="utf-8" standalone="no"?>
<!DOCTYPE svg PUBLIC "-//W3C//DTD SVG 1.1//EN"
  "http://www.w3.org/Graphics/SVG/1.1/DTD/svg11.dtd">
<svg xmlns:xlink="http://www.w3.org/1999/xlink" width="343.333125pt" height="343.367625pt" viewBox="0 0 343.333125 343.367625" xmlns="http://www.w3.org/2000/svg" version="1.1">
 <metadata>
  <rdf:RDF xmlns:dc="http://purl.org/dc/elements/1.1/" xmlns:cc="http://creativecommons.org/ns#" xmlns:rdf="http://www.w3.org/1999/02/22-rdf-syntax-ns#">
   <cc:Work>
    <dc:type rdf:resource="http://purl.org/dc/dcmitype/StillImage"/>
    <dc:date>2025-08-01T10:03:55.005933</dc:date>
    <dc:format>image/svg+xml</dc:format>
    <dc:creator>
     <cc:Agent>
      <dc:title>Matplotlib v3.9.4, https://matplotlib.org/</dc:title>
     </cc:Agent>
    </dc:creator>
   </cc:Work>
  </rdf:RDF>
 </metadata>
 <defs>
  <style type="text/css">*{stroke-linejoin: round; stroke-linecap: butt}</style>
 </defs>
 <g id="figure_1">
  <g id="patch_1">
   <path d="M 0 343.367625 
L 343.333125 343.367625 
L 343.333125 0 
L 0 0 
L 0 343.367625 
z
" style="fill: none"/>
  </g>
  <g id="axes_1">
   <g id="patch_2">
    <path d="M 64.027125 295.956 
L 336.133125 295.956 
L 336.133125 7.2 
L 64.027125 7.2 
L 64.027125 295.956 
z
" style="fill: none"/>
   </g>
   <g id="matplotlib.axis_1">
    <g id="xtick_1">
     <g id="line2d_1">
      <defs>
       <path id="m450072ee2d" d="M 0 0 
L 0 6 
" style="stroke: #000000; stroke-width: 1.25"/>
      </defs>
      <g>
       <use xlink:href="#m450072ee2d" x="102.738757" y="295.956" style="stroke: #000000; stroke-width: 1.25"/>
      </g>
     </g>
     <g id="text_1">
      <!-- −80 -->
      <g transform="translate(88.809663 315.485937) scale(0.132 -0.132)">
       <defs>
        <path id="DejaVuSans-2212" d="M 678 2272 
L 4684 2272 
L 4684 1741 
L 678 1741 
L 678 2272 
z
" transform="scale(0.015625)"/>
        <path id="DejaVuSans-38" d="M 2034 2216 
Q 1584 2216 1326 1975 
Q 1069 1734 1069 1313 
Q 1069 891 1326 650 
Q 1584 409 2034 409 
Q 2484 409 2743 651 
Q 3003 894 3003 1313 
Q 3003 1734 2745 1975 
Q 2488 2216 2034 2216 
z
M 1403 2484 
Q 997 2584 770 2862 
Q 544 3141 544 3541 
Q 544 4100 942 4425 
Q 1341 4750 2034 4750 
Q 2731 4750 3128 4425 
Q 3525 4100 3525 3541 
Q 3525 3141 3298 2862 
Q 3072 2584 2669 2484 
Q 3125 2378 3379 2068 
Q 3634 1759 3634 1313 
Q 3634 634 3220 271 
Q 2806 -91 2034 -91 
Q 1263 -91 848 271 
Q 434 634 434 1313 
Q 434 1759 690 2068 
Q 947 2378 1403 2484 
z
M 1172 3481 
Q 1172 3119 1398 2916 
Q 1625 2713 2034 2713 
Q 2441 2713 2670 2916 
Q 2900 3119 2900 3481 
Q 2900 3844 2670 4047 
Q 2441 4250 2034 4250 
Q 1625 4250 1398 4047 
Q 1172 3844 1172 3481 
z
" transform="scale(0.015625)"/>
        <path id="DejaVuSans-30" d="M 2034 4250 
Q 1547 4250 1301 3770 
Q 1056 3291 1056 2328 
Q 1056 1369 1301 889 
Q 1547 409 2034 409 
Q 2525 409 2770 889 
Q 3016 1369 3016 2328 
Q 3016 3291 2770 3770 
Q 2525 4250 2034 4250 
z
M 2034 4750 
Q 2819 4750 3233 4129 
Q 3647 3509 3647 2328 
Q 3647 1150 3233 529 
Q 2819 -91 2034 -91 
Q 1250 -91 836 529 
Q 422 1150 422 2328 
Q 422 3509 836 4129 
Q 1250 4750 2034 4750 
z
" transform="scale(0.015625)"/>
       </defs>
       <use xlink:href="#DejaVuSans-2212"/>
       <use xlink:href="#DejaVuSans-38" x="83.789062"/>
       <use xlink:href="#DejaVuSans-30" x="147.412109"/>
      </g>
     </g>
    </g>
    <g id="xtick_2">
     <g id="line2d_2">
      <g>
       <use xlink:href="#m450072ee2d" x="155.425111" y="295.956" style="stroke: #000000; stroke-width: 1.25"/>
      </g>
     </g>
     <g id="text_2">
      <!-- −60 -->
      <g transform="translate(141.496018 315.485937) scale(0.132 -0.132)">
       <defs>
        <path id="DejaVuSans-36" d="M 2113 2584 
Q 1688 2584 1439 2293 
Q 1191 2003 1191 1497 
Q 1191 994 1439 701 
Q 1688 409 2113 409 
Q 2538 409 2786 701 
Q 3034 994 3034 1497 
Q 3034 2003 2786 2293 
Q 2538 2584 2113 2584 
z
M 3366 4563 
L 3366 3988 
Q 3128 4100 2886 4159 
Q 2644 4219 2406 4219 
Q 1781 4219 1451 3797 
Q 1122 3375 1075 2522 
Q 1259 2794 1537 2939 
Q 1816 3084 2150 3084 
Q 2853 3084 3261 2657 
Q 3669 2231 3669 1497 
Q 3669 778 3244 343 
Q 2819 -91 2113 -91 
Q 1303 -91 875 529 
Q 447 1150 447 2328 
Q 447 3434 972 4092 
Q 1497 4750 2381 4750 
Q 2619 4750 2861 4703 
Q 3103 4656 3366 4563 
z
" transform="scale(0.015625)"/>
       </defs>
       <use xlink:href="#DejaVuSans-2212"/>
       <use xlink:href="#DejaVuSans-36" x="83.789062"/>
       <use xlink:href="#DejaVuSans-30" x="147.412109"/>
      </g>
     </g>
    </g>
    <g id="xtick_3">
     <g id="line2d_3">
      <g>
       <use xlink:href="#m450072ee2d" x="208.111466" y="295.956" style="stroke: #000000; stroke-width: 1.25"/>
      </g>
     </g>
     <g id="text_3">
      <!-- −40 -->
      <g transform="translate(194.182372 315.485937) scale(0.132 -0.132)">
       <defs>
        <path id="DejaVuSans-34" d="M 2419 4116 
L 825 1625 
L 2419 1625 
L 2419 4116 
z
M 2253 4666 
L 3047 4666 
L 3047 1625 
L 3713 1625 
L 3713 1100 
L 3047 1100 
L 3047 0 
L 2419 0 
L 2419 1100 
L 313 1100 
L 313 1709 
L 2253 4666 
z
" transform="scale(0.015625)"/>
       </defs>
       <use xlink:href="#DejaVuSans-2212"/>
       <use xlink:href="#DejaVuSans-34" x="83.789062"/>
       <use xlink:href="#DejaVuSans-30" x="147.412109"/>
      </g>
     </g>
    </g>
    <g id="xtick_4">
     <g id="line2d_4">
      <g>
       <use xlink:href="#m450072ee2d" x="260.79782" y="295.956" style="stroke: #000000; stroke-width: 1.25"/>
      </g>
     </g>
     <g id="text_4">
      <!-- −20 -->
      <g transform="translate(246.868727 315.485937) scale(0.132 -0.132)">
       <defs>
        <path id="DejaVuSans-32" d="M 1228 531 
L 3431 531 
L 3431 0 
L 469 0 
L 469 531 
Q 828 903 1448 1529 
Q 2069 2156 2228 2338 
Q 2531 2678 2651 2914 
Q 2772 3150 2772 3378 
Q 2772 3750 2511 3984 
Q 2250 4219 1831 4219 
Q 1534 4219 1204 4116 
Q 875 4013 500 3803 
L 500 4441 
Q 881 4594 1212 4672 
Q 1544 4750 1819 4750 
Q 2544 4750 2975 4387 
Q 3406 4025 3406 3419 
Q 3406 3131 3298 2873 
Q 3191 2616 2906 2266 
Q 2828 2175 2409 1742 
Q 1991 1309 1228 531 
z
" transform="scale(0.015625)"/>
       </defs>
       <use xlink:href="#DejaVuSans-2212"/>
       <use xlink:href="#DejaVuSans-32" x="83.789062"/>
       <use xlink:href="#DejaVuSans-30" x="147.412109"/>
      </g>
     </g>
    </g>
    <g id="xtick_5">
     <g id="line2d_5">
      <g>
       <use xlink:href="#m450072ee2d" x="313.484175" y="295.956" style="stroke: #000000; stroke-width: 1.25"/>
      </g>
     </g>
     <g id="text_5">
      <!-- 0 -->
      <g transform="translate(309.284925 315.485937) scale(0.132 -0.132)">
       <use xlink:href="#DejaVuSans-30"/>
      </g>
     </g>
    </g>
    <g id="text_6">
     <!-- Log-Likelihood -->
     <g transform="translate(148.3245 333.172875) scale(0.144 -0.144)">
      <defs>
       <path id="DejaVuSans-4c" d="M 628 4666 
L 1259 4666 
L 1259 531 
L 3531 531 
L 3531 0 
L 628 0 
L 628 4666 
z
" transform="scale(0.015625)"/>
       <path id="DejaVuSans-6f" d="M 1959 3097 
Q 1497 3097 1228 2736 
Q 959 2375 959 1747 
Q 959 1119 1226 758 
Q 1494 397 1959 397 
Q 2419 397 2687 759 
Q 2956 1122 2956 1747 
Q 2956 2369 2687 2733 
Q 2419 3097 1959 3097 
z
M 1959 3584 
Q 2709 3584 3137 3096 
Q 3566 2609 3566 1747 
Q 3566 888 3137 398 
Q 2709 -91 1959 -91 
Q 1206 -91 779 398 
Q 353 888 353 1747 
Q 353 2609 779 3096 
Q 1206 3584 1959 3584 
z
" transform="scale(0.015625)"/>
       <path id="DejaVuSans-67" d="M 2906 1791 
Q 2906 2416 2648 2759 
Q 2391 3103 1925 3103 
Q 1463 3103 1205 2759 
Q 947 2416 947 1791 
Q 947 1169 1205 825 
Q 1463 481 1925 481 
Q 2391 481 2648 825 
Q 2906 1169 2906 1791 
z
M 3481 434 
Q 3481 -459 3084 -895 
Q 2688 -1331 1869 -1331 
Q 1566 -1331 1297 -1286 
Q 1028 -1241 775 -1147 
L 775 -588 
Q 1028 -725 1275 -790 
Q 1522 -856 1778 -856 
Q 2344 -856 2625 -561 
Q 2906 -266 2906 331 
L 2906 616 
Q 2728 306 2450 153 
Q 2172 0 1784 0 
Q 1141 0 747 490 
Q 353 981 353 1791 
Q 353 2603 747 3093 
Q 1141 3584 1784 3584 
Q 2172 3584 2450 3431 
Q 2728 3278 2906 2969 
L 2906 3500 
L 3481 3500 
L 3481 434 
z
" transform="scale(0.015625)"/>
       <path id="DejaVuSans-2d" d="M 313 2009 
L 1997 2009 
L 1997 1497 
L 313 1497 
L 313 2009 
z
" transform="scale(0.015625)"/>
       <path id="DejaVuSans-69" d="M 603 3500 
L 1178 3500 
L 1178 0 
L 603 0 
L 603 3500 
z
M 603 4863 
L 1178 4863 
L 1178 4134 
L 603 4134 
L 603 4863 
z
" transform="scale(0.015625)"/>
       <path id="DejaVuSans-6b" d="M 581 4863 
L 1159 4863 
L 1159 1991 
L 2875 3500 
L 3609 3500 
L 1753 1863 
L 3688 0 
L 2938 0 
L 1159 1709 
L 1159 0 
L 581 0 
L 581 4863 
z
" transform="scale(0.015625)"/>
       <path id="DejaVuSans-65" d="M 3597 1894 
L 3597 1613 
L 953 1613 
Q 991 1019 1311 708 
Q 1631 397 2203 397 
Q 2534 397 2845 478 
Q 3156 559 3463 722 
L 3463 178 
Q 3153 47 2828 -22 
Q 2503 -91 2169 -91 
Q 1331 -91 842 396 
Q 353 884 353 1716 
Q 353 2575 817 3079 
Q 1281 3584 2069 3584 
Q 2775 3584 3186 3129 
Q 3597 2675 3597 1894 
z
M 3022 2063 
Q 3016 2534 2758 2815 
Q 2500 3097 2075 3097 
Q 1594 3097 1305 2825 
Q 1016 2553 972 2059 
L 3022 2063 
z
" transform="scale(0.015625)"/>
       <path id="DejaVuSans-6c" d="M 603 4863 
L 1178 4863 
L 1178 0 
L 603 0 
L 603 4863 
z
" transform="scale(0.015625)"/>
       <path id="DejaVuSans-68" d="M 3513 2113 
L 3513 0 
L 2938 0 
L 2938 2094 
Q 2938 2591 2744 2837 
Q 2550 3084 2163 3084 
Q 1697 3084 1428 2787 
Q 1159 2491 1159 1978 
L 1159 0 
L 581 0 
L 581 4863 
L 1159 4863 
L 1159 2956 
Q 1366 3272 1645 3428 
Q 1925 3584 2291 3584 
Q 2894 3584 3203 3211 
Q 3513 2838 3513 2113 
z
" transform="scale(0.015625)"/>
       <path id="DejaVuSans-64" d="M 2906 2969 
L 2906 4863 
L 3481 4863 
L 3481 0 
L 2906 0 
L 2906 525 
Q 2725 213 2448 61 
Q 2172 -91 1784 -91 
Q 1150 -91 751 415 
Q 353 922 353 1747 
Q 353 2572 751 3078 
Q 1150 3584 1784 3584 
Q 2172 3584 2448 3432 
Q 2725 3281 2906 2969 
z
M 947 1747 
Q 947 1113 1208 752 
Q 1469 391 1925 391 
Q 2381 391 2643 752 
Q 2906 1113 2906 1747 
Q 2906 2381 2643 2742 
Q 2381 3103 1925 3103 
Q 1469 3103 1208 2742 
Q 947 2381 947 1747 
z
" transform="scale(0.015625)"/>
      </defs>
      <use xlink:href="#DejaVuSans-4c"/>
      <use xlink:href="#DejaVuSans-6f" x="53.962891"/>
      <use xlink:href="#DejaVuSans-67" x="115.144531"/>
      <use xlink:href="#DejaVuSans-2d" x="178.621094"/>
      <use xlink:href="#DejaVuSans-4c" x="214.705078"/>
      <use xlink:href="#DejaVuSans-69" x="270.417969"/>
      <use xlink:href="#DejaVuSans-6b" x="298.201172"/>
      <use xlink:href="#DejaVuSans-65" x="352.486328"/>
      <use xlink:href="#DejaVuSans-6c" x="414.009766"/>
      <use xlink:href="#DejaVuSans-69" x="441.792969"/>
      <use xlink:href="#DejaVuSans-68" x="469.576172"/>
      <use xlink:href="#DejaVuSans-6f" x="532.955078"/>
      <use xlink:href="#DejaVuSans-6f" x="594.136719"/>
      <use xlink:href="#DejaVuSans-64" x="655.318359"/>
     </g>
    </g>
   </g>
   <g id="matplotlib.axis_2">
    <g id="ytick_1">
     <g id="line2d_6">
      <defs>
       <path id="m78e3f692f6" d="M 0 0 
L -6 0 
" style="stroke: #000000; stroke-width: 1.25"/>
      </defs>
      <g>
       <use xlink:href="#m78e3f692f6" x="64.027125" y="283.603491" style="stroke: #000000; stroke-width: 1.25"/>
      </g>
     </g>
     <g id="text_7">
      <!-- 0.00 -->
      <g transform="translate(25.1365 288.61846) scale(0.132 -0.132)">
       <defs>
        <path id="DejaVuSans-2e" d="M 684 794 
L 1344 794 
L 1344 0 
L 684 0 
L 684 794 
z
" transform="scale(0.015625)"/>
       </defs>
       <use xlink:href="#DejaVuSans-30"/>
       <use xlink:href="#DejaVuSans-2e" x="63.623047"/>
       <use xlink:href="#DejaVuSans-30" x="95.410156"/>
       <use xlink:href="#DejaVuSans-30" x="159.033203"/>
      </g>
     </g>
    </g>
    <g id="ytick_2">
     <g id="line2d_7">
      <g>
       <use xlink:href="#m78e3f692f6" x="64.027125" y="225.193015" style="stroke: #000000; stroke-width: 1.25"/>
      </g>
     </g>
     <g id="text_8">
      <!-- 0.01 -->
      <g transform="translate(25.1365 230.207984) scale(0.132 -0.132)">
       <defs>
        <path id="DejaVuSans-31" d="M 794 531 
L 1825 531 
L 1825 4091 
L 703 3866 
L 703 4441 
L 1819 4666 
L 2450 4666 
L 2450 531 
L 3481 531 
L 3481 0 
L 794 0 
L 794 531 
z
" transform="scale(0.015625)"/>
       </defs>
       <use xlink:href="#DejaVuSans-30"/>
       <use xlink:href="#DejaVuSans-2e" x="63.623047"/>
       <use xlink:href="#DejaVuSans-30" x="95.410156"/>
       <use xlink:href="#DejaVuSans-31" x="159.033203"/>
      </g>
     </g>
    </g>
    <g id="ytick_3">
     <g id="line2d_8">
      <g>
       <use xlink:href="#m78e3f692f6" x="64.027125" y="166.78254" style="stroke: #000000; stroke-width: 1.25"/>
      </g>
     </g>
     <g id="text_9">
      <!-- 0.02 -->
      <g transform="translate(25.1365 171.797509) scale(0.132 -0.132)">
       <use xlink:href="#DejaVuSans-30"/>
       <use xlink:href="#DejaVuSans-2e" x="63.623047"/>
       <use xlink:href="#DejaVuSans-30" x="95.410156"/>
       <use xlink:href="#DejaVuSans-32" x="159.033203"/>
      </g>
     </g>
    </g>
    <g id="ytick_4">
     <g id="line2d_9">
      <g>
       <use xlink:href="#m78e3f692f6" x="64.027125" y="108.372064" style="stroke: #000000; stroke-width: 1.25"/>
      </g>
     </g>
     <g id="text_10">
      <!-- 0.03 -->
      <g transform="translate(25.1365 113.387033) scale(0.132 -0.132)">
       <defs>
        <path id="DejaVuSans-33" d="M 2597 2516 
Q 3050 2419 3304 2112 
Q 3559 1806 3559 1356 
Q 3559 666 3084 287 
Q 2609 -91 1734 -91 
Q 1441 -91 1130 -33 
Q 819 25 488 141 
L 488 750 
Q 750 597 1062 519 
Q 1375 441 1716 441 
Q 2309 441 2620 675 
Q 2931 909 2931 1356 
Q 2931 1769 2642 2001 
Q 2353 2234 1838 2234 
L 1294 2234 
L 1294 2753 
L 1863 2753 
Q 2328 2753 2575 2939 
Q 2822 3125 2822 3475 
Q 2822 3834 2567 4026 
Q 2313 4219 1838 4219 
Q 1578 4219 1281 4162 
Q 984 4106 628 3988 
L 628 4550 
Q 988 4650 1302 4700 
Q 1616 4750 1894 4750 
Q 2613 4750 3031 4423 
Q 3450 4097 3450 3541 
Q 3450 3153 3228 2886 
Q 3006 2619 2597 2516 
z
" transform="scale(0.015625)"/>
       </defs>
       <use xlink:href="#DejaVuSans-30"/>
       <use xlink:href="#DejaVuSans-2e" x="63.623047"/>
       <use xlink:href="#DejaVuSans-30" x="95.410156"/>
       <use xlink:href="#DejaVuSans-33" x="159.033203"/>
      </g>
     </g>
    </g>
    <g id="ytick_5">
     <g id="line2d_10">
      <g>
       <use xlink:href="#m78e3f692f6" x="64.027125" y="49.961589" style="stroke: #000000; stroke-width: 1.25"/>
      </g>
     </g>
     <g id="text_11">
      <!-- 0.04 -->
      <g transform="translate(25.1365 54.976557) scale(0.132 -0.132)">
       <use xlink:href="#DejaVuSans-30"/>
       <use xlink:href="#DejaVuSans-2e" x="63.623047"/>
       <use xlink:href="#DejaVuSans-30" x="95.410156"/>
       <use xlink:href="#DejaVuSans-34" x="159.033203"/>
      </g>
     </g>
    </g>
    <g id="text_12">
     <!-- Density -->
     <g transform="translate(18.14175 178.950375) rotate(-90) scale(0.144 -0.144)">
      <defs>
       <path id="DejaVuSans-44" d="M 1259 4147 
L 1259 519 
L 2022 519 
Q 2988 519 3436 956 
Q 3884 1394 3884 2338 
Q 3884 3275 3436 3711 
Q 2988 4147 2022 4147 
L 1259 4147 
z
M 628 4666 
L 1925 4666 
Q 3281 4666 3915 4102 
Q 4550 3538 4550 2338 
Q 4550 1131 3912 565 
Q 3275 0 1925 0 
L 628 0 
L 628 4666 
z
" transform="scale(0.015625)"/>
       <path id="DejaVuSans-6e" d="M 3513 2113 
L 3513 0 
L 2938 0 
L 2938 2094 
Q 2938 2591 2744 2837 
Q 2550 3084 2163 3084 
Q 1697 3084 1428 2787 
Q 1159 2491 1159 1978 
L 1159 0 
L 581 0 
L 581 3500 
L 1159 3500 
L 1159 2956 
Q 1366 3272 1645 3428 
Q 1925 3584 2291 3584 
Q 2894 3584 3203 3211 
Q 3513 2838 3513 2113 
z
" transform="scale(0.015625)"/>
       <path id="DejaVuSans-73" d="M 2834 3397 
L 2834 2853 
Q 2591 2978 2328 3040 
Q 2066 3103 1784 3103 
Q 1356 3103 1142 2972 
Q 928 2841 928 2578 
Q 928 2378 1081 2264 
Q 1234 2150 1697 2047 
L 1894 2003 
Q 2506 1872 2764 1633 
Q 3022 1394 3022 966 
Q 3022 478 2636 193 
Q 2250 -91 1575 -91 
Q 1294 -91 989 -36 
Q 684 19 347 128 
L 347 722 
Q 666 556 975 473 
Q 1284 391 1588 391 
Q 1994 391 2212 530 
Q 2431 669 2431 922 
Q 2431 1156 2273 1281 
Q 2116 1406 1581 1522 
L 1381 1569 
Q 847 1681 609 1914 
Q 372 2147 372 2553 
Q 372 3047 722 3315 
Q 1072 3584 1716 3584 
Q 2034 3584 2315 3537 
Q 2597 3491 2834 3397 
z
" transform="scale(0.015625)"/>
       <path id="DejaVuSans-74" d="M 1172 4494 
L 1172 3500 
L 2356 3500 
L 2356 3053 
L 1172 3053 
L 1172 1153 
Q 1172 725 1289 603 
Q 1406 481 1766 481 
L 2356 481 
L 2356 0 
L 1766 0 
Q 1100 0 847 248 
Q 594 497 594 1153 
L 594 3053 
L 172 3053 
L 172 3500 
L 594 3500 
L 594 4494 
L 1172 4494 
z
" transform="scale(0.015625)"/>
       <path id="DejaVuSans-79" d="M 2059 -325 
Q 1816 -950 1584 -1140 
Q 1353 -1331 966 -1331 
L 506 -1331 
L 506 -850 
L 844 -850 
Q 1081 -850 1212 -737 
Q 1344 -625 1503 -206 
L 1606 56 
L 191 3500 
L 800 3500 
L 1894 763 
L 2988 3500 
L 3597 3500 
L 2059 -325 
z
" transform="scale(0.015625)"/>
      </defs>
      <use xlink:href="#DejaVuSans-44"/>
      <use xlink:href="#DejaVuSans-65" x="77.001953"/>
      <use xlink:href="#DejaVuSans-6e" x="138.525391"/>
      <use xlink:href="#DejaVuSans-73" x="201.904297"/>
      <use xlink:href="#DejaVuSans-69" x="254.003906"/>
      <use xlink:href="#DejaVuSans-74" x="281.787109"/>
      <use xlink:href="#DejaVuSans-79" x="320.996094"/>
     </g>
    </g>
   </g>
   <g id="line2d_11">
    <path d="M 76.39558 281.802124 
L 92.114686 281.470744 
L 106.179149 281.116393 
L 115.279684 280.661916 
L 124.380219 279.987408 
L 135.135397 278.954868 
L 144.235932 277.885556 
L 151.681825 276.788917 
L 157.473074 275.698829 
L 162.437002 274.520256 
L 166.573609 273.311612 
L 170.710216 271.847784 
L 174.019502 270.458715 
L 177.328787 268.844612 
L 180.638073 266.97331 
L 183.947358 264.808648 
L 187.256644 262.309478 
L 189.738608 260.187436 
L 192.220572 257.828317 
L 194.702536 255.207147 
L 197.1845 252.296332 
L 199.666464 249.065626 
L 202.148428 245.482266 
L 204.630393 241.511331 
L 207.112357 237.116403 
L 209.594321 232.260577 
L 212.076285 226.907903 
L 214.558249 221.025271 
L 217.040213 214.584778 
L 219.522177 207.566536 
L 222.004141 199.961873 
L 224.486106 191.776788 
L 227.795391 180.005396 
L 231.104677 167.366434 
L 235.241283 150.659397 
L 244.341819 113.43312 
L 246.823783 104.107748 
L 249.305747 95.561015 
L 250.96039 90.412502 
L 252.615032 85.783653 
L 254.269675 81.740217 
L 255.924318 78.343714 
L 257.578961 75.650027 
L 258.406282 74.582327 
L 259.233603 73.708048 
L 260.060925 73.032003 
L 260.888246 72.558418 
L 261.715567 72.290899 
L 262.542889 72.232409 
L 263.37021 72.385236 
L 264.197532 72.750981 
L 265.024853 73.330531 
L 265.852174 74.124056 
L 266.679496 75.130991 
L 267.506817 76.350036 
L 269.16146 79.415583 
L 270.816103 83.295688 
L 272.470745 87.954013 
L 274.125388 93.343527 
L 275.780031 99.407388 
L 278.261995 109.62221 
L 280.743959 120.954646 
L 284.053244 137.323955 
L 296.463065 200.687449 
L 298.945029 211.975482 
L 301.426993 222.407651 
L 303.908957 231.897263 
L 306.390922 240.398017 
L 308.872886 247.900173 
L 311.35485 254.425374 
L 313.009493 258.255128 
L 314.664135 261.690097 
L 316.318778 264.752134 
L 317.973421 267.465243 
L 319.628064 269.854848 
L 321.282706 271.947123 
L 322.937349 273.768402 
L 323.76467 274.585564 
L 323.76467 274.585564 
" clip-path="url(#p288ac83e79)" style="fill: none; stroke: #1f77b4; stroke-width: 2; stroke-linecap: square"/>
   </g>
   <g id="line2d_12">
    <path d="M 76.39558 282.244588 
L 84.668793 281.81644 
L 92.114686 281.739706 
L 97.905935 281.586004 
L 106.179149 281.061675 
L 117.761648 280.213793 
L 121.070934 279.660351 
L 124.380219 278.814544 
L 127.689505 277.70121 
L 134.308076 275.324157 
L 136.79004 274.660304 
L 139.272004 274.2119 
L 141.753968 273.965668 
L 150.854503 273.382308 
L 153.336467 272.872705 
L 155.818431 272.12596 
L 159.127717 270.833157 
L 172.364859 264.997231 
L 174.846823 263.672746 
L 177.328787 262.051827 
L 179.810751 260.062311 
L 182.292715 257.692771 
L 184.77468 254.996353 
L 188.911286 250.056969 
L 202.148428 233.68027 
L 204.630393 230.201179 
L 207.112357 226.351162 
L 209.594321 222.025413 
L 212.076285 217.116416 
L 214.558249 211.508579 
L 217.040213 205.079045 
L 219.522177 197.70502 
L 222.004141 189.273604 
L 224.486106 179.689458 
L 226.96807 168.87891 
L 229.450034 156.793736 
L 231.931998 143.420992 
L 234.413962 128.805389 
L 237.723248 107.647111 
L 245.996461 52.854281 
L 247.651104 43.407947 
L 249.305747 35.181299 
L 250.96039 28.497073 
L 251.787711 25.826796 
L 252.615032 23.648507 
L 253.442354 21.990501 
L 254.269675 20.876524 
L 255.096996 20.325273 
L 255.924318 20.350007 
L 256.751639 20.958284 
L 257.578961 22.151819 
L 258.406282 23.926491 
L 259.233603 26.272472 
L 260.060925 29.17449 
L 260.888246 32.612199 
L 262.542889 40.990857 
L 264.197532 51.163947 
L 265.852174 62.842182 
L 268.334138 82.493217 
L 271.643424 111.023368 
L 276.607352 154.234155 
L 279.089316 174.341934 
L 281.57128 192.656576 
L 283.225923 203.657561 
L 284.880566 213.589214 
L 286.535209 222.404457 
L 288.189851 230.09546 
L 289.844494 236.694497 
L 291.499137 242.27202 
L 293.15378 246.931549 
L 294.808422 250.801576 
L 296.463065 254.025225 
L 298.117708 256.748839 
L 299.772351 259.11085 
L 302.254315 262.233989 
L 306.390922 266.978596 
L 311.35485 272.413994 
L 314.664135 275.690314 
L 317.146099 277.802259 
L 319.628064 279.544519 
L 322.110028 280.899267 
L 323.76467 281.597942 
L 323.76467 281.597942 
" clip-path="url(#p288ac83e79)" style="fill: none; stroke: #aec7e8; stroke-width: 2; stroke-linecap: square"/>
   </g>
   <g id="line2d_13">
    <path d="M 76.39558 277.65735 
L 85.496115 278.658162 
L 111.970399 281.774719 
L 119.416291 282.355146 
L 126.862183 282.715842 
L 133.480754 282.830727 
L 140.099325 282.724762 
L 145.890575 282.415072 
L 150.854503 281.950205 
L 155.818431 281.256249 
L 159.955038 280.463694 
L 164.091645 279.436201 
L 167.400931 278.4163 
L 170.710216 277.194575 
L 174.019502 275.745656 
L 177.328787 274.043331 
L 180.638073 272.061142 
L 183.947358 269.773092 
L 187.256644 267.154422 
L 190.565929 264.182462 
L 193.875215 260.837523 
L 197.1845 257.103806 
L 200.493786 252.970318 
L 203.803071 248.431766 
L 207.112357 243.489427 
L 210.421642 238.151975 
L 213.730928 232.436275 
L 217.867535 224.799905 
L 222.004141 216.684985 
L 226.96807 206.452784 
L 236.068605 187.016554 
L 241.859854 174.861552 
L 245.996461 166.636855 
L 249.305747 160.491385 
L 252.615032 154.847923 
L 255.096996 151.007329 
L 257.578961 147.54903 
L 260.060925 144.511775 
L 262.542889 141.930934 
L 264.197532 140.479632 
L 265.852174 139.253466 
L 267.506817 138.259735 
L 269.16146 137.504754 
L 270.816103 136.993821 
L 272.470745 136.731179 
L 274.125388 136.719996 
L 275.780031 136.96234 
L 277.434673 137.459169 
L 279.089316 138.210318 
L 280.743959 139.214492 
L 282.398602 140.469267 
L 284.053244 141.971083 
L 285.707887 143.715253 
L 287.36253 145.695965 
L 289.844494 149.095092 
L 292.326458 152.982576 
L 294.808422 157.324964 
L 297.290386 162.083589 
L 300.599672 168.999924 
L 303.908957 176.462788 
L 308.045564 186.365297 
L 314.664135 202.902875 
L 321.282706 219.31806 
L 323.76467 225.227595 
L 323.76467 225.227595 
" clip-path="url(#p288ac83e79)" style="fill: none; stroke: #ff7f0e; stroke-width: 2; stroke-linecap: square"/>
   </g>
   <g id="line2d_14">
    <path d="M 76.39558 279.901536 
L 80.532186 280.492533 
L 83.841472 280.787684 
L 87.150757 280.892298 
L 90.460043 280.79479 
L 93.769328 280.501186 
L 97.905935 279.894037 
L 102.869864 278.913438 
L 119.416291 275.415767 
L 126.034862 274.03794 
L 129.344147 273.151648 
L 132.653433 272.018754 
L 135.135397 270.960838 
L 137.617361 269.69812 
L 140.099325 268.21843 
L 142.581289 266.521628 
L 145.890575 263.943 
L 149.19986 261.053199 
L 153.336467 257.107404 
L 158.300396 252.031111 
L 163.264324 246.624965 
L 166.573609 242.754822 
L 169.882895 238.545782 
L 172.364859 235.082164 
L 174.846823 231.28697 
L 177.328787 227.104108 
L 179.810751 222.489231 
L 182.292715 217.41468 
L 184.77468 211.872675 
L 187.256644 205.87642 
L 190.565929 197.234701 
L 193.875215 187.970567 
L 198.839143 173.262859 
L 211.248964 135.851374 
L 214.558249 126.592254 
L 217.867535 118.022504 
L 220.349499 112.206691 
L 222.831463 107.060246 
L 224.486106 104.072954 
L 226.140748 101.493851 
L 227.795391 99.369584 
L 229.450034 97.746333 
L 230.277355 97.136542 
L 231.104677 96.668378 
L 231.931998 96.346823 
L 232.759319 96.176544 
L 233.586641 96.161843 
L 234.413962 96.306606 
L 235.241283 96.614259 
L 236.068605 97.087722 
L 236.895926 97.729365 
L 237.723248 98.540975 
L 239.37789 100.678107 
L 241.032533 103.500496 
L 242.687176 106.998451 
L 244.341819 111.150858 
L 245.996461 115.925199 
L 247.651104 121.277965 
L 250.133068 130.271652 
L 252.615032 140.225851 
L 255.924318 154.553417 
L 265.852174 198.686669 
L 269.16146 211.891913 
L 271.643424 220.884407 
L 274.125388 229.00452 
L 276.607352 236.222742 
L 279.089316 242.552684 
L 281.57128 248.043305 
L 284.053244 252.769537 
L 286.535209 256.822357 
L 289.017173 260.299267 
L 291.499137 263.296028 
L 293.981101 265.900205 
L 296.463065 268.18685 
L 298.945029 270.216325 
L 302.254315 272.598785 
L 305.5636 274.674396 
L 308.872886 276.481847 
L 312.182171 278.039718 
L 315.491457 279.357925 
L 318.800742 280.446271 
L 322.110028 281.319331 
L 323.76467 281.681408 
L 323.76467 281.681408 
" clip-path="url(#p288ac83e79)" style="fill: none; stroke: #ffbb78; stroke-width: 2; stroke-linecap: square"/>
   </g>
   <g id="line2d_15">
    <path d="M 76.39558 279.31312 
L 80.532186 278.018436 
L 84.668793 276.476784 
L 88.8054 274.687379 
L 92.942007 272.663849 
L 97.905935 269.969231 
L 104.524506 266.062284 
L 116.934327 258.63774 
L 121.898255 255.94485 
L 126.862183 253.51554 
L 131.826112 251.347423 
L 138.444683 248.73553 
L 145.890575 245.780567 
L 150.027182 243.900536 
L 153.336467 242.169543 
L 156.645753 240.174628 
L 159.955038 237.867059 
L 163.264324 235.209518 
L 166.573609 232.17837 
L 169.882895 228.764998 
L 173.19218 224.976204 
L 176.501466 220.833784 
L 179.810751 216.373458 
L 183.947358 210.425442 
L 189.738608 201.619315 
L 200.493786 185.075047 
L 204.630393 179.156959 
L 207.939678 174.79347 
L 211.248964 170.862036 
L 213.730928 168.251872 
L 216.212892 165.9719 
L 218.694856 164.05492 
L 220.349499 162.992975 
L 222.004141 162.112534 
L 223.658784 161.41979 
L 225.313427 160.919713 
L 226.96807 160.615953 
L 228.622712 160.510757 
L 230.277355 160.604908 
L 231.931998 160.897682 
L 233.586641 161.386831 
L 235.241283 162.068589 
L 236.895926 162.937709 
L 238.550569 163.987515 
L 241.032533 165.883139 
L 243.514497 168.134874 
L 245.996461 170.705424 
L 248.478425 173.553534 
L 251.787711 177.706826 
L 255.924318 183.320744 
L 261.715567 191.613849 
L 271.643424 205.853068 
L 277.434673 213.727571 
L 283.225923 221.181113 
L 289.017173 228.260112 
L 295.635744 236.00195 
L 303.081636 244.37257 
L 309.700207 251.492625 
L 314.664135 256.555323 
L 319.628064 261.289888 
L 323.76467 264.922372 
L 323.76467 264.922372 
" clip-path="url(#p288ac83e79)" style="fill: none; stroke: #2ca02c; stroke-width: 2; stroke-linecap: square"/>
   </g>
   <g id="patch_3">
    <path d="M 64.027125 295.956 
L 64.027125 7.2 
" style="fill: none; stroke: #000000; stroke-width: 1.25; stroke-linejoin: miter; stroke-linecap: square"/>
   </g>
   <g id="patch_4">
    <path d="M 64.027125 295.956 
L 336.133125 295.956 
" style="fill: none; stroke: #000000; stroke-width: 1.25; stroke-linejoin: miter; stroke-linecap: square"/>
   </g>
   <g id="legend_1">
    <g id="line2d_16">
     <path d="M 75.907125 24.489938 
L 89.107125 24.489938 
L 102.307125 24.489938 
" style="fill: none; stroke: #1f77b4; stroke-width: 2; stroke-linecap: square"/>
    </g>
    <g id="text_13">
     <!-- H1 (n=2242) -->
     <g transform="translate(112.867125 29.109938) scale(0.132 -0.132)">
      <defs>
       <path id="DejaVuSans-48" d="M 628 4666 
L 1259 4666 
L 1259 2753 
L 3553 2753 
L 3553 4666 
L 4184 4666 
L 4184 0 
L 3553 0 
L 3553 2222 
L 1259 2222 
L 1259 0 
L 628 0 
L 628 4666 
z
" transform="scale(0.015625)"/>
       <path id="DejaVuSans-20" transform="scale(0.015625)"/>
       <path id="DejaVuSans-28" d="M 1984 4856 
Q 1566 4138 1362 3434 
Q 1159 2731 1159 2009 
Q 1159 1288 1364 580 
Q 1569 -128 1984 -844 
L 1484 -844 
Q 1016 -109 783 600 
Q 550 1309 550 2009 
Q 550 2706 781 3412 
Q 1013 4119 1484 4856 
L 1984 4856 
z
" transform="scale(0.015625)"/>
       <path id="DejaVuSans-3d" d="M 678 2906 
L 4684 2906 
L 4684 2381 
L 678 2381 
L 678 2906 
z
M 678 1631 
L 4684 1631 
L 4684 1100 
L 678 1100 
L 678 1631 
z
" transform="scale(0.015625)"/>
       <path id="DejaVuSans-29" d="M 513 4856 
L 1013 4856 
Q 1481 4119 1714 3412 
Q 1947 2706 1947 2009 
Q 1947 1309 1714 600 
Q 1481 -109 1013 -844 
L 513 -844 
Q 928 -128 1133 580 
Q 1338 1288 1338 2009 
Q 1338 2731 1133 3434 
Q 928 4138 513 4856 
z
" transform="scale(0.015625)"/>
      </defs>
      <use xlink:href="#DejaVuSans-48"/>
      <use xlink:href="#DejaVuSans-31" x="75.195312"/>
      <use xlink:href="#DejaVuSans-20" x="138.818359"/>
      <use xlink:href="#DejaVuSans-28" x="170.605469"/>
      <use xlink:href="#DejaVuSans-6e" x="209.619141"/>
      <use xlink:href="#DejaVuSans-3d" x="272.998047"/>
      <use xlink:href="#DejaVuSans-32" x="356.787109"/>
      <use xlink:href="#DejaVuSans-32" x="420.410156"/>
      <use xlink:href="#DejaVuSans-34" x="484.033203"/>
      <use xlink:href="#DejaVuSans-32" x="547.65625"/>
      <use xlink:href="#DejaVuSans-29" x="611.279297"/>
     </g>
    </g>
    <g id="line2d_17">
     <path d="M 75.907125 43.865063 
L 89.107125 43.865063 
L 102.307125 43.865063 
" style="fill: none; stroke: #aec7e8; stroke-width: 2; stroke-linecap: square"/>
    </g>
    <g id="text_14">
     <!-- H3 (n=788) -->
     <g transform="translate(112.867125 48.485063) scale(0.132 -0.132)">
      <defs>
       <path id="DejaVuSans-37" d="M 525 4666 
L 3525 4666 
L 3525 4397 
L 1831 0 
L 1172 0 
L 2766 4134 
L 525 4134 
L 525 4666 
z
" transform="scale(0.015625)"/>
      </defs>
      <use xlink:href="#DejaVuSans-48"/>
      <use xlink:href="#DejaVuSans-33" x="75.195312"/>
      <use xlink:href="#DejaVuSans-20" x="138.818359"/>
      <use xlink:href="#DejaVuSans-28" x="170.605469"/>
      <use xlink:href="#DejaVuSans-6e" x="209.619141"/>
      <use xlink:href="#DejaVuSans-3d" x="272.998047"/>
      <use xlink:href="#DejaVuSans-37" x="356.787109"/>
      <use xlink:href="#DejaVuSans-38" x="420.410156"/>
      <use xlink:href="#DejaVuSans-38" x="484.033203"/>
      <use xlink:href="#DejaVuSans-29" x="547.65625"/>
     </g>
    </g>
    <g id="line2d_18">
     <path d="M 75.907125 63.240187 
L 89.107125 63.240187 
L 102.307125 63.240187 
" style="fill: none; stroke: #ff7f0e; stroke-width: 2; stroke-linecap: square"/>
    </g>
    <g id="text_15">
     <!-- HX (n=153) -->
     <g transform="translate(112.867125 67.860187) scale(0.132 -0.132)">
      <defs>
       <path id="DejaVuSans-58" d="M 403 4666 
L 1081 4666 
L 2241 2931 
L 3406 4666 
L 4084 4666 
L 2584 2425 
L 4184 0 
L 3506 0 
L 2194 1984 
L 872 0 
L 191 0 
L 1856 2491 
L 403 4666 
z
" transform="scale(0.015625)"/>
       <path id="DejaVuSans-35" d="M 691 4666 
L 3169 4666 
L 3169 4134 
L 1269 4134 
L 1269 2991 
Q 1406 3038 1543 3061 
Q 1681 3084 1819 3084 
Q 2600 3084 3056 2656 
Q 3513 2228 3513 1497 
Q 3513 744 3044 326 
Q 2575 -91 1722 -91 
Q 1428 -91 1123 -41 
Q 819 9 494 109 
L 494 744 
Q 775 591 1075 516 
Q 1375 441 1709 441 
Q 2250 441 2565 725 
Q 2881 1009 2881 1497 
Q 2881 1984 2565 2268 
Q 2250 2553 1709 2553 
Q 1456 2553 1204 2497 
Q 953 2441 691 2322 
L 691 4666 
z
" transform="scale(0.015625)"/>
      </defs>
      <use xlink:href="#DejaVuSans-48"/>
      <use xlink:href="#DejaVuSans-58" x="75.195312"/>
      <use xlink:href="#DejaVuSans-20" x="143.701172"/>
      <use xlink:href="#DejaVuSans-28" x="175.488281"/>
      <use xlink:href="#DejaVuSans-6e" x="214.501953"/>
      <use xlink:href="#DejaVuSans-3d" x="277.880859"/>
      <use xlink:href="#DejaVuSans-31" x="361.669922"/>
      <use xlink:href="#DejaVuSans-35" x="425.292969"/>
      <use xlink:href="#DejaVuSans-33" x="488.916016"/>
      <use xlink:href="#DejaVuSans-29" x="552.539062"/>
     </g>
    </g>
    <g id="line2d_19">
     <path d="M 75.907125 82.615313 
L 89.107125 82.615313 
L 102.307125 82.615313 
" style="fill: none; stroke: #ffbb78; stroke-width: 2; stroke-linecap: square"/>
    </g>
    <g id="text_16">
     <!-- H5 (n=52) -->
     <g transform="translate(112.867125 87.235313) scale(0.132 -0.132)">
      <use xlink:href="#DejaVuSans-48"/>
      <use xlink:href="#DejaVuSans-35" x="75.195312"/>
      <use xlink:href="#DejaVuSans-20" x="138.818359"/>
      <use xlink:href="#DejaVuSans-28" x="170.605469"/>
      <use xlink:href="#DejaVuSans-6e" x="209.619141"/>
      <use xlink:href="#DejaVuSans-3d" x="272.998047"/>
      <use xlink:href="#DejaVuSans-35" x="356.787109"/>
      <use xlink:href="#DejaVuSans-32" x="420.410156"/>
      <use xlink:href="#DejaVuSans-29" x="484.033203"/>
     </g>
    </g>
    <g id="line2d_20">
     <path d="M 75.907125 101.990437 
L 89.107125 101.990437 
L 102.307125 101.990437 
" style="fill: none; stroke: #2ca02c; stroke-width: 2; stroke-linecap: square"/>
    </g>
    <g id="text_17">
     <!-- H7 (n=15) -->
     <g transform="translate(112.867125 106.610437) scale(0.132 -0.132)">
      <use xlink:href="#DejaVuSans-48"/>
      <use xlink:href="#DejaVuSans-37" x="75.195312"/>
      <use xlink:href="#DejaVuSans-20" x="138.818359"/>
      <use xlink:href="#DejaVuSans-28" x="170.605469"/>
      <use xlink:href="#DejaVuSans-6e" x="209.619141"/>
      <use xlink:href="#DejaVuSans-3d" x="272.998047"/>
      <use xlink:href="#DejaVuSans-31" x="356.787109"/>
      <use xlink:href="#DejaVuSans-35" x="420.410156"/>
      <use xlink:href="#DejaVuSans-29" x="484.033203"/>
     </g>
    </g>
   </g>
  </g>
 </g>
 <defs>
  <clipPath id="p288ac83e79">
   <rect x="64.027125" y="7.2" width="272.106" height="288.756"/>
  </clipPath>
 </defs>
</svg>
