<?xml version="1.0" encoding="utf-8" standalone="no"?>
<!DOCTYPE svg PUBLIC "-//W3C//DTD SVG 1.1//EN"
  "http://www.w3.org/Graphics/SVG/1.1/DTD/svg11.dtd">
<svg xmlns:xlink="http://www.w3.org/1999/xlink" width="343.333125pt" height="343.367625pt" viewBox="0 0 343.333125 343.367625" xmlns="http://www.w3.org/2000/svg" version="1.1">
 <metadata>
  <rdf:RDF xmlns:dc="http://purl.org/dc/elements/1.1/" xmlns:cc="http://creativecommons.org/ns#" xmlns:rdf="http://www.w3.org/1999/02/22-rdf-syntax-ns#">
   <cc:Work>
    <dc:type rdf:resource="http://purl.org/dc/dcmitype/StillImage"/>
    <dc:date>2025-08-01T10:03:55.304936</dc:date>
    <dc:format>image/svg+xml</dc:format>
    <dc:creator>
     <cc:Agent>
      <dc:title>Matplotlib v3.9.4, https://matplotlib.org/</dc:title>
     </cc:Agent>
    </dc:creator>
   </cc:Work>
  </rdf:RDF>
 </metadata>
 <defs>
  <style type="text/css">*{stroke-linejoin: round; stroke-linecap: butt}</style>
 </defs>
 <g id="figure_1">
  <g id="patch_1">
   <path d="M 0 343.367625 
L 343.333125 343.367625 
L 343.333125 0 
L 0 0 
L 0 343.367625 
z
" style="fill: none"/>
  </g>
  <g id="axes_1">
   <g id="patch_2">
    <path d="M 64.027125 295.956 
L 336.133125 295.956 
L 336.133125 7.2 
L 64.027125 7.2 
L 64.027125 295.956 
z
" style="fill: none"/>
   </g>
   <g id="matplotlib.axis_1">
    <g id="xtick_1">
     <g id="line2d_1">
      <defs>
       <path id="m116cf86b56" d="M 0 0 
L 0 6 
" style="stroke: #000000; stroke-width: 1.25"/>
      </defs>
      <g>
       <use xlink:href="#m116cf86b56" x="102.550821" y="295.956" style="stroke: #000000; stroke-width: 1.25"/>
      </g>
     </g>
     <g id="text_1">
      <!-- −80 -->
      <g transform="translate(88.621727 315.485937) scale(0.132 -0.132)">
       <defs>
        <path id="DejaVuSans-2212" d="M 678 2272 
L 4684 2272 
L 4684 1741 
L 678 1741 
L 678 2272 
z
" transform="scale(0.015625)"/>
        <path id="DejaVuSans-38" d="M 2034 2216 
Q 1584 2216 1326 1975 
Q 1069 1734 1069 1313 
Q 1069 891 1326 650 
Q 1584 409 2034 409 
Q 2484 409 2743 651 
Q 3003 894 3003 1313 
Q 3003 1734 2745 1975 
Q 2488 2216 2034 2216 
z
M 1403 2484 
Q 997 2584 770 2862 
Q 544 3141 544 3541 
Q 544 4100 942 4425 
Q 1341 4750 2034 4750 
Q 2731 4750 3128 4425 
Q 3525 4100 3525 3541 
Q 3525 3141 3298 2862 
Q 3072 2584 2669 2484 
Q 3125 2378 3379 2068 
Q 3634 1759 3634 1313 
Q 3634 634 3220 271 
Q 2806 -91 2034 -91 
Q 1263 -91 848 271 
Q 434 634 434 1313 
Q 434 1759 690 2068 
Q 947 2378 1403 2484 
z
M 1172 3481 
Q 1172 3119 1398 2916 
Q 1625 2713 2034 2713 
Q 2441 2713 2670 2916 
Q 2900 3119 2900 3481 
Q 2900 3844 2670 4047 
Q 2441 4250 2034 4250 
Q 1625 4250 1398 4047 
Q 1172 3844 1172 3481 
z
" transform="scale(0.015625)"/>
        <path id="DejaVuSans-30" d="M 2034 4250 
Q 1547 4250 1301 3770 
Q 1056 3291 1056 2328 
Q 1056 1369 1301 889 
Q 1547 409 2034 409 
Q 2525 409 2770 889 
Q 3016 1369 3016 2328 
Q 3016 3291 2770 3770 
Q 2525 4250 2034 4250 
z
M 2034 4750 
Q 2819 4750 3233 4129 
Q 3647 3509 3647 2328 
Q 3647 1150 3233 529 
Q 2819 -91 2034 -91 
Q 1250 -91 836 529 
Q 422 1150 422 2328 
Q 422 3509 836 4129 
Q 1250 4750 2034 4750 
z
" transform="scale(0.015625)"/>
       </defs>
       <use xlink:href="#DejaVuSans-2212"/>
       <use xlink:href="#DejaVuSans-38" x="83.789062"/>
       <use xlink:href="#DejaVuSans-30" x="147.412109"/>
      </g>
     </g>
    </g>
    <g id="xtick_2">
     <g id="line2d_2">
      <g>
       <use xlink:href="#m116cf86b56" x="154.861304" y="295.956" style="stroke: #000000; stroke-width: 1.25"/>
      </g>
     </g>
     <g id="text_2">
      <!-- −60 -->
      <g transform="translate(140.932211 315.485937) scale(0.132 -0.132)">
       <defs>
        <path id="DejaVuSans-36" d="M 2113 2584 
Q 1688 2584 1439 2293 
Q 1191 2003 1191 1497 
Q 1191 994 1439 701 
Q 1688 409 2113 409 
Q 2538 409 2786 701 
Q 3034 994 3034 1497 
Q 3034 2003 2786 2293 
Q 2538 2584 2113 2584 
z
M 3366 4563 
L 3366 3988 
Q 3128 4100 2886 4159 
Q 2644 4219 2406 4219 
Q 1781 4219 1451 3797 
Q 1122 3375 1075 2522 
Q 1259 2794 1537 2939 
Q 1816 3084 2150 3084 
Q 2853 3084 3261 2657 
Q 3669 2231 3669 1497 
Q 3669 778 3244 343 
Q 2819 -91 2113 -91 
Q 1303 -91 875 529 
Q 447 1150 447 2328 
Q 447 3434 972 4092 
Q 1497 4750 2381 4750 
Q 2619 4750 2861 4703 
Q 3103 4656 3366 4563 
z
" transform="scale(0.015625)"/>
       </defs>
       <use xlink:href="#DejaVuSans-2212"/>
       <use xlink:href="#DejaVuSans-36" x="83.789062"/>
       <use xlink:href="#DejaVuSans-30" x="147.412109"/>
      </g>
     </g>
    </g>
    <g id="xtick_3">
     <g id="line2d_3">
      <g>
       <use xlink:href="#m116cf86b56" x="207.171787" y="295.956" style="stroke: #000000; stroke-width: 1.25"/>
      </g>
     </g>
     <g id="text_3">
      <!-- −40 -->
      <g transform="translate(193.242694 315.485937) scale(0.132 -0.132)">
       <defs>
        <path id="DejaVuSans-34" d="M 2419 4116 
L 825 1625 
L 2419 1625 
L 2419 4116 
z
M 2253 4666 
L 3047 4666 
L 3047 1625 
L 3713 1625 
L 3713 1100 
L 3047 1100 
L 3047 0 
L 2419 0 
L 2419 1100 
L 313 1100 
L 313 1709 
L 2253 4666 
z
" transform="scale(0.015625)"/>
       </defs>
       <use xlink:href="#DejaVuSans-2212"/>
       <use xlink:href="#DejaVuSans-34" x="83.789062"/>
       <use xlink:href="#DejaVuSans-30" x="147.412109"/>
      </g>
     </g>
    </g>
    <g id="xtick_4">
     <g id="line2d_4">
      <g>
       <use xlink:href="#m116cf86b56" x="259.482271" y="295.956" style="stroke: #000000; stroke-width: 1.25"/>
      </g>
     </g>
     <g id="text_4">
      <!-- −20 -->
      <g transform="translate(245.553177 315.485937) scale(0.132 -0.132)">
       <defs>
        <path id="DejaVuSans-32" d="M 1228 531 
L 3431 531 
L 3431 0 
L 469 0 
L 469 531 
Q 828 903 1448 1529 
Q 2069 2156 2228 2338 
Q 2531 2678 2651 2914 
Q 2772 3150 2772 3378 
Q 2772 3750 2511 3984 
Q 2250 4219 1831 4219 
Q 1534 4219 1204 4116 
Q 875 4013 500 3803 
L 500 4441 
Q 881 4594 1212 4672 
Q 1544 4750 1819 4750 
Q 2544 4750 2975 4387 
Q 3406 4025 3406 3419 
Q 3406 3131 3298 2873 
Q 3191 2616 2906 2266 
Q 2828 2175 2409 1742 
Q 1991 1309 1228 531 
z
" transform="scale(0.015625)"/>
       </defs>
       <use xlink:href="#DejaVuSans-2212"/>
       <use xlink:href="#DejaVuSans-32" x="83.789062"/>
       <use xlink:href="#DejaVuSans-30" x="147.412109"/>
      </g>
     </g>
    </g>
    <g id="xtick_5">
     <g id="line2d_5">
      <g>
       <use xlink:href="#m116cf86b56" x="311.792754" y="295.956" style="stroke: #000000; stroke-width: 1.25"/>
      </g>
     </g>
     <g id="text_5">
      <!-- 0 -->
      <g transform="translate(307.593504 315.485937) scale(0.132 -0.132)">
       <use xlink:href="#DejaVuSans-30"/>
      </g>
     </g>
    </g>
    <g id="text_6">
     <!-- Log-Likelihood -->
     <g transform="translate(148.3245 333.172875) scale(0.144 -0.144)">
      <defs>
       <path id="DejaVuSans-4c" d="M 628 4666 
L 1259 4666 
L 1259 531 
L 3531 531 
L 3531 0 
L 628 0 
L 628 4666 
z
" transform="scale(0.015625)"/>
       <path id="DejaVuSans-6f" d="M 1959 3097 
Q 1497 3097 1228 2736 
Q 959 2375 959 1747 
Q 959 1119 1226 758 
Q 1494 397 1959 397 
Q 2419 397 2687 759 
Q 2956 1122 2956 1747 
Q 2956 2369 2687 2733 
Q 2419 3097 1959 3097 
z
M 1959 3584 
Q 2709 3584 3137 3096 
Q 3566 2609 3566 1747 
Q 3566 888 3137 398 
Q 2709 -91 1959 -91 
Q 1206 -91 779 398 
Q 353 888 353 1747 
Q 353 2609 779 3096 
Q 1206 3584 1959 3584 
z
" transform="scale(0.015625)"/>
       <path id="DejaVuSans-67" d="M 2906 1791 
Q 2906 2416 2648 2759 
Q 2391 3103 1925 3103 
Q 1463 3103 1205 2759 
Q 947 2416 947 1791 
Q 947 1169 1205 825 
Q 1463 481 1925 481 
Q 2391 481 2648 825 
Q 2906 1169 2906 1791 
z
M 3481 434 
Q 3481 -459 3084 -895 
Q 2688 -1331 1869 -1331 
Q 1566 -1331 1297 -1286 
Q 1028 -1241 775 -1147 
L 775 -588 
Q 1028 -725 1275 -790 
Q 1522 -856 1778 -856 
Q 2344 -856 2625 -561 
Q 2906 -266 2906 331 
L 2906 616 
Q 2728 306 2450 153 
Q 2172 0 1784 0 
Q 1141 0 747 490 
Q 353 981 353 1791 
Q 353 2603 747 3093 
Q 1141 3584 1784 3584 
Q 2172 3584 2450 3431 
Q 2728 3278 2906 2969 
L 2906 3500 
L 3481 3500 
L 3481 434 
z
" transform="scale(0.015625)"/>
       <path id="DejaVuSans-2d" d="M 313 2009 
L 1997 2009 
L 1997 1497 
L 313 1497 
L 313 2009 
z
" transform="scale(0.015625)"/>
       <path id="DejaVuSans-69" d="M 603 3500 
L 1178 3500 
L 1178 0 
L 603 0 
L 603 3500 
z
M 603 4863 
L 1178 4863 
L 1178 4134 
L 603 4134 
L 603 4863 
z
" transform="scale(0.015625)"/>
       <path id="DejaVuSans-6b" d="M 581 4863 
L 1159 4863 
L 1159 1991 
L 2875 3500 
L 3609 3500 
L 1753 1863 
L 3688 0 
L 2938 0 
L 1159 1709 
L 1159 0 
L 581 0 
L 581 4863 
z
" transform="scale(0.015625)"/>
       <path id="DejaVuSans-65" d="M 3597 1894 
L 3597 1613 
L 953 1613 
Q 991 1019 1311 708 
Q 1631 397 2203 397 
Q 2534 397 2845 478 
Q 3156 559 3463 722 
L 3463 178 
Q 3153 47 2828 -22 
Q 2503 -91 2169 -91 
Q 1331 -91 842 396 
Q 353 884 353 1716 
Q 353 2575 817 3079 
Q 1281 3584 2069 3584 
Q 2775 3584 3186 3129 
Q 3597 2675 3597 1894 
z
M 3022 2063 
Q 3016 2534 2758 2815 
Q 2500 3097 2075 3097 
Q 1594 3097 1305 2825 
Q 1016 2553 972 2059 
L 3022 2063 
z
" transform="scale(0.015625)"/>
       <path id="DejaVuSans-6c" d="M 603 4863 
L 1178 4863 
L 1178 0 
L 603 0 
L 603 4863 
z
" transform="scale(0.015625)"/>
       <path id="DejaVuSans-68" d="M 3513 2113 
L 3513 0 
L 2938 0 
L 2938 2094 
Q 2938 2591 2744 2837 
Q 2550 3084 2163 3084 
Q 1697 3084 1428 2787 
Q 1159 2491 1159 1978 
L 1159 0 
L 581 0 
L 581 4863 
L 1159 4863 
L 1159 2956 
Q 1366 3272 1645 3428 
Q 1925 3584 2291 3584 
Q 2894 3584 3203 3211 
Q 3513 2838 3513 2113 
z
" transform="scale(0.015625)"/>
       <path id="DejaVuSans-64" d="M 2906 2969 
L 2906 4863 
L 3481 4863 
L 3481 0 
L 2906 0 
L 2906 525 
Q 2725 213 2448 61 
Q 2172 -91 1784 -91 
Q 1150 -91 751 415 
Q 353 922 353 1747 
Q 353 2572 751 3078 
Q 1150 3584 1784 3584 
Q 2172 3584 2448 3432 
Q 2725 3281 2906 2969 
z
M 947 1747 
Q 947 1113 1208 752 
Q 1469 391 1925 391 
Q 2381 391 2643 752 
Q 2906 1113 2906 1747 
Q 2906 2381 2643 2742 
Q 2381 3103 1925 3103 
Q 1469 3103 1208 2742 
Q 947 2381 947 1747 
z
" transform="scale(0.015625)"/>
      </defs>
      <use xlink:href="#DejaVuSans-4c"/>
      <use xlink:href="#DejaVuSans-6f" x="53.962891"/>
      <use xlink:href="#DejaVuSans-67" x="115.144531"/>
      <use xlink:href="#DejaVuSans-2d" x="178.621094"/>
      <use xlink:href="#DejaVuSans-4c" x="214.705078"/>
      <use xlink:href="#DejaVuSans-69" x="270.417969"/>
      <use xlink:href="#DejaVuSans-6b" x="298.201172"/>
      <use xlink:href="#DejaVuSans-65" x="352.486328"/>
      <use xlink:href="#DejaVuSans-6c" x="414.009766"/>
      <use xlink:href="#DejaVuSans-69" x="441.792969"/>
      <use xlink:href="#DejaVuSans-68" x="469.576172"/>
      <use xlink:href="#DejaVuSans-6f" x="532.955078"/>
      <use xlink:href="#DejaVuSans-6f" x="594.136719"/>
      <use xlink:href="#DejaVuSans-64" x="655.318359"/>
     </g>
    </g>
   </g>
   <g id="matplotlib.axis_2">
    <g id="ytick_1">
     <g id="line2d_6">
      <defs>
       <path id="me3f3f438a9" d="M 0 0 
L -6 0 
" style="stroke: #000000; stroke-width: 1.25"/>
      </defs>
      <g>
       <use xlink:href="#me3f3f438a9" x="64.027125" y="282.831336" style="stroke: #000000; stroke-width: 1.25"/>
      </g>
     </g>
     <g id="text_7">
      <!-- 0.00 -->
      <g transform="translate(25.1365 287.846305) scale(0.132 -0.132)">
       <defs>
        <path id="DejaVuSans-2e" d="M 684 794 
L 1344 794 
L 1344 0 
L 684 0 
L 684 794 
z
" transform="scale(0.015625)"/>
       </defs>
       <use xlink:href="#DejaVuSans-30"/>
       <use xlink:href="#DejaVuSans-2e" x="63.623047"/>
       <use xlink:href="#DejaVuSans-30" x="95.410156"/>
       <use xlink:href="#DejaVuSans-30" x="159.033203"/>
      </g>
     </g>
    </g>
    <g id="ytick_2">
     <g id="line2d_7">
      <g>
       <use xlink:href="#me3f3f438a9" x="64.027125" y="235.588399" style="stroke: #000000; stroke-width: 1.25"/>
      </g>
     </g>
     <g id="text_8">
      <!-- 0.01 -->
      <g transform="translate(25.1365 240.603368) scale(0.132 -0.132)">
       <defs>
        <path id="DejaVuSans-31" d="M 794 531 
L 1825 531 
L 1825 4091 
L 703 3866 
L 703 4441 
L 1819 4666 
L 2450 4666 
L 2450 531 
L 3481 531 
L 3481 0 
L 794 0 
L 794 531 
z
" transform="scale(0.015625)"/>
       </defs>
       <use xlink:href="#DejaVuSans-30"/>
       <use xlink:href="#DejaVuSans-2e" x="63.623047"/>
       <use xlink:href="#DejaVuSans-30" x="95.410156"/>
       <use xlink:href="#DejaVuSans-31" x="159.033203"/>
      </g>
     </g>
    </g>
    <g id="ytick_3">
     <g id="line2d_8">
      <g>
       <use xlink:href="#me3f3f438a9" x="64.027125" y="188.345461" style="stroke: #000000; stroke-width: 1.25"/>
      </g>
     </g>
     <g id="text_9">
      <!-- 0.02 -->
      <g transform="translate(25.1365 193.36043) scale(0.132 -0.132)">
       <use xlink:href="#DejaVuSans-30"/>
       <use xlink:href="#DejaVuSans-2e" x="63.623047"/>
       <use xlink:href="#DejaVuSans-30" x="95.410156"/>
       <use xlink:href="#DejaVuSans-32" x="159.033203"/>
      </g>
     </g>
    </g>
    <g id="ytick_4">
     <g id="line2d_9">
      <g>
       <use xlink:href="#me3f3f438a9" x="64.027125" y="141.102524" style="stroke: #000000; stroke-width: 1.25"/>
      </g>
     </g>
     <g id="text_10">
      <!-- 0.03 -->
      <g transform="translate(25.1365 146.117492) scale(0.132 -0.132)">
       <defs>
        <path id="DejaVuSans-33" d="M 2597 2516 
Q 3050 2419 3304 2112 
Q 3559 1806 3559 1356 
Q 3559 666 3084 287 
Q 2609 -91 1734 -91 
Q 1441 -91 1130 -33 
Q 819 25 488 141 
L 488 750 
Q 750 597 1062 519 
Q 1375 441 1716 441 
Q 2309 441 2620 675 
Q 2931 909 2931 1356 
Q 2931 1769 2642 2001 
Q 2353 2234 1838 2234 
L 1294 2234 
L 1294 2753 
L 1863 2753 
Q 2328 2753 2575 2939 
Q 2822 3125 2822 3475 
Q 2822 3834 2567 4026 
Q 2313 4219 1838 4219 
Q 1578 4219 1281 4162 
Q 984 4106 628 3988 
L 628 4550 
Q 988 4650 1302 4700 
Q 1616 4750 1894 4750 
Q 2613 4750 3031 4423 
Q 3450 4097 3450 3541 
Q 3450 3153 3228 2886 
Q 3006 2619 2597 2516 
z
" transform="scale(0.015625)"/>
       </defs>
       <use xlink:href="#DejaVuSans-30"/>
       <use xlink:href="#DejaVuSans-2e" x="63.623047"/>
       <use xlink:href="#DejaVuSans-30" x="95.410156"/>
       <use xlink:href="#DejaVuSans-33" x="159.033203"/>
      </g>
     </g>
    </g>
    <g id="ytick_5">
     <g id="line2d_10">
      <g>
       <use xlink:href="#me3f3f438a9" x="64.027125" y="93.859586" style="stroke: #000000; stroke-width: 1.25"/>
      </g>
     </g>
     <g id="text_11">
      <!-- 0.04 -->
      <g transform="translate(25.1365 98.874555) scale(0.132 -0.132)">
       <use xlink:href="#DejaVuSans-30"/>
       <use xlink:href="#DejaVuSans-2e" x="63.623047"/>
       <use xlink:href="#DejaVuSans-30" x="95.410156"/>
       <use xlink:href="#DejaVuSans-34" x="159.033203"/>
      </g>
     </g>
    </g>
    <g id="ytick_6">
     <g id="line2d_11">
      <g>
       <use xlink:href="#me3f3f438a9" x="64.027125" y="46.616649" style="stroke: #000000; stroke-width: 1.25"/>
      </g>
     </g>
     <g id="text_12">
      <!-- 0.05 -->
      <g transform="translate(25.1365 51.631617) scale(0.132 -0.132)">
       <defs>
        <path id="DejaVuSans-35" d="M 691 4666 
L 3169 4666 
L 3169 4134 
L 1269 4134 
L 1269 2991 
Q 1406 3038 1543 3061 
Q 1681 3084 1819 3084 
Q 2600 3084 3056 2656 
Q 3513 2228 3513 1497 
Q 3513 744 3044 326 
Q 2575 -91 1722 -91 
Q 1428 -91 1123 -41 
Q 819 9 494 109 
L 494 744 
Q 775 591 1075 516 
Q 1375 441 1709 441 
Q 2250 441 2565 725 
Q 2881 1009 2881 1497 
Q 2881 1984 2565 2268 
Q 2250 2553 1709 2553 
Q 1456 2553 1204 2497 
Q 953 2441 691 2322 
L 691 4666 
z
" transform="scale(0.015625)"/>
       </defs>
       <use xlink:href="#DejaVuSans-30"/>
       <use xlink:href="#DejaVuSans-2e" x="63.623047"/>
       <use xlink:href="#DejaVuSans-30" x="95.410156"/>
       <use xlink:href="#DejaVuSans-35" x="159.033203"/>
      </g>
     </g>
    </g>
    <g id="text_13">
     <!-- Density -->
     <g transform="translate(18.14175 178.950375) rotate(-90) scale(0.144 -0.144)">
      <defs>
       <path id="DejaVuSans-44" d="M 1259 4147 
L 1259 519 
L 2022 519 
Q 2988 519 3436 956 
Q 3884 1394 3884 2338 
Q 3884 3275 3436 3711 
Q 2988 4147 2022 4147 
L 1259 4147 
z
M 628 4666 
L 1925 4666 
Q 3281 4666 3915 4102 
Q 4550 3538 4550 2338 
Q 4550 1131 3912 565 
Q 3275 0 1925 0 
L 628 0 
L 628 4666 
z
" transform="scale(0.015625)"/>
       <path id="DejaVuSans-6e" d="M 3513 2113 
L 3513 0 
L 2938 0 
L 2938 2094 
Q 2938 2591 2744 2837 
Q 2550 3084 2163 3084 
Q 1697 3084 1428 2787 
Q 1159 2491 1159 1978 
L 1159 0 
L 581 0 
L 581 3500 
L 1159 3500 
L 1159 2956 
Q 1366 3272 1645 3428 
Q 1925 3584 2291 3584 
Q 2894 3584 3203 3211 
Q 3513 2838 3513 2113 
z
" transform="scale(0.015625)"/>
       <path id="DejaVuSans-73" d="M 2834 3397 
L 2834 2853 
Q 2591 2978 2328 3040 
Q 2066 3103 1784 3103 
Q 1356 3103 1142 2972 
Q 928 2841 928 2578 
Q 928 2378 1081 2264 
Q 1234 2150 1697 2047 
L 1894 2003 
Q 2506 1872 2764 1633 
Q 3022 1394 3022 966 
Q 3022 478 2636 193 
Q 2250 -91 1575 -91 
Q 1294 -91 989 -36 
Q 684 19 347 128 
L 347 722 
Q 666 556 975 473 
Q 1284 391 1588 391 
Q 1994 391 2212 530 
Q 2431 669 2431 922 
Q 2431 1156 2273 1281 
Q 2116 1406 1581 1522 
L 1381 1569 
Q 847 1681 609 1914 
Q 372 2147 372 2553 
Q 372 3047 722 3315 
Q 1072 3584 1716 3584 
Q 2034 3584 2315 3537 
Q 2597 3491 2834 3397 
z
" transform="scale(0.015625)"/>
       <path id="DejaVuSans-74" d="M 1172 4494 
L 1172 3500 
L 2356 3500 
L 2356 3053 
L 1172 3053 
L 1172 1153 
Q 1172 725 1289 603 
Q 1406 481 1766 481 
L 2356 481 
L 2356 0 
L 1766 0 
Q 1100 0 847 248 
Q 594 497 594 1153 
L 594 3053 
L 172 3053 
L 172 3500 
L 594 3500 
L 594 4494 
L 1172 4494 
z
" transform="scale(0.015625)"/>
       <path id="DejaVuSans-79" d="M 2059 -325 
Q 1816 -950 1584 -1140 
Q 1353 -1331 966 -1331 
L 506 -1331 
L 506 -850 
L 844 -850 
Q 1081 -850 1212 -737 
Q 1344 -625 1503 -206 
L 1606 56 
L 191 3500 
L 800 3500 
L 1894 763 
L 2988 3500 
L 3597 3500 
L 2059 -325 
z
" transform="scale(0.015625)"/>
      </defs>
      <use xlink:href="#DejaVuSans-44"/>
      <use xlink:href="#DejaVuSans-65" x="77.001953"/>
      <use xlink:href="#DejaVuSans-6e" x="138.525391"/>
      <use xlink:href="#DejaVuSans-73" x="201.904297"/>
      <use xlink:href="#DejaVuSans-69" x="254.003906"/>
      <use xlink:href="#DejaVuSans-74" x="281.787109"/>
      <use xlink:href="#DejaVuSans-79" x="320.996094"/>
     </g>
    </g>
   </g>
   <g id="line2d_12">
    <path d="M 76.39558 281.731115 
L 90.460043 282.10229 
L 97.905935 282.0687 
L 121.070934 281.747206 
L 132.653433 281.714852 
L 140.099325 281.448893 
L 172.364859 279.786493 
L 176.501466 279.247666 
L 180.638073 278.471328 
L 184.77468 277.453261 
L 189.738608 275.987377 
L 200.493786 272.488655 
L 206.285035 270.450648 
L 210.421642 268.771658 
L 214.558249 266.814305 
L 218.694856 264.56409 
L 223.658784 261.551609 
L 229.450034 257.739507 
L 233.586641 254.792945 
L 236.895926 252.19848 
L 240.205212 249.273709 
L 242.687176 246.786362 
L 245.16914 243.981068 
L 247.651104 240.789554 
L 250.133068 237.129786 
L 252.615032 232.900284 
L 254.269675 229.703273 
L 255.924318 226.15434 
L 257.578961 222.204711 
L 259.233603 217.800571 
L 260.888246 212.883514 
L 262.542889 207.391334 
L 264.197532 201.259347 
L 265.852174 194.422478 
L 267.506817 186.818384 
L 269.16146 178.391906 
L 270.816103 169.101053 
L 273.298067 153.505404 
L 275.780031 135.987913 
L 278.261995 116.83787 
L 286.535209 51.177262 
L 288.189851 40.460103 
L 289.844494 31.600152 
L 290.671815 28.008085 
L 291.499137 25.044348 
L 292.326458 22.755905 
L 293.15378 21.184295 
L 293.981101 20.364728 
L 294.808422 20.325273 
L 295.635744 21.086151 
L 296.463065 22.659165 
L 297.290386 25.047279 
L 298.117708 28.244363 
L 298.945029 32.235114 
L 299.772351 36.995157 
L 301.426993 48.682171 
L 303.081636 62.94422 
L 304.736279 79.310669 
L 307.218243 106.591722 
L 313.836814 181.548417 
L 316.318778 205.798071 
L 317.973421 219.947757 
L 319.628064 232.342949 
L 321.282706 242.967847 
L 322.937349 251.88374 
L 323.76467 255.736608 
L 323.76467 255.736608 
" clip-path="url(#p62d8bf6cdb)" style="fill: none; stroke: #1f77b4; stroke-width: 2; stroke-linecap: square"/>
   </g>
   <g id="line2d_13">
    <path d="M 76.39558 282.807534 
L 86.323436 282.627808 
L 112.79772 281.636922 
L 116.934327 281.066838 
L 127.689505 279.315483 
L 130.99879 279.159495 
L 134.308076 279.271909 
L 138.444683 279.697803 
L 149.19986 281.053142 
L 152.509146 281.202619 
L 155.818431 281.095803 
L 158.300396 280.820028 
L 160.78236 280.36851 
L 164.091645 279.503847 
L 167.400931 278.385658 
L 178.156109 274.420443 
L 181.465394 273.585193 
L 185.602001 272.826914 
L 189.738608 272.031536 
L 192.220572 271.312333 
L 193.875215 270.65743 
L 195.529857 269.825067 
L 197.1845 268.788859 
L 198.839143 267.528444 
L 200.493786 266.030129 
L 202.148428 264.286989 
L 203.803071 262.298325 
L 206.285035 258.865255 
L 208.766999 254.915563 
L 211.248964 250.474987 
L 213.730928 245.559708 
L 216.212892 240.180931 
L 219.522177 232.347176 
L 228.622712 210.011311 
L 230.277355 206.721132 
L 231.931998 203.959464 
L 233.586641 201.811476 
L 234.413962 200.983901 
L 235.241283 200.3236 
L 236.068605 199.828918 
L 236.895926 199.494972 
L 237.723248 199.313677 
L 238.550569 199.273852 
L 240.205212 199.559668 
L 241.859854 200.2104 
L 246.823783 202.570908 
L 248.478425 202.880374 
L 249.305747 202.852511 
L 250.133068 202.68078 
L 250.96039 202.351205 
L 251.787711 201.852029 
L 252.615032 201.173743 
L 253.442354 200.309074 
L 254.269675 199.252927 
L 255.924318 196.556105 
L 257.578961 193.081813 
L 259.233603 188.855024 
L 260.888246 183.921789 
L 262.542889 178.343983 
L 265.024853 168.930982 
L 267.506817 158.513173 
L 270.816103 143.608132 
L 275.780031 120.975059 
L 278.261995 110.649859 
L 279.916638 104.565193 
L 281.57128 99.359615 
L 283.225923 95.232581 
L 284.053244 93.630518 
L 284.880566 92.36268 
L 285.707887 91.445966 
L 286.535209 90.89448 
L 287.36253 90.719312 
L 288.189851 90.928409 
L 289.017173 91.526522 
L 289.844494 92.515243 
L 290.671815 93.893116 
L 291.499137 95.65581 
L 292.326458 97.796352 
L 293.15378 100.30539 
L 294.808422 106.381377 
L 296.463065 113.772183 
L 298.117708 122.345324 
L 299.772351 131.953106 
L 302.254315 147.950445 
L 305.5636 171.290974 
L 311.35485 212.929424 
L 313.836814 229.0929 
L 315.491457 238.795148 
L 317.146099 247.471085 
L 318.800742 255.036233 
L 320.455385 261.463013 
L 322.110028 266.778192 
L 323.76467 271.054962 
L 323.76467 271.054962 
" clip-path="url(#p62d8bf6cdb)" style="fill: none; stroke: #aec7e8; stroke-width: 2; stroke-linecap: square"/>
   </g>
   <g id="line2d_14">
    <path d="M 76.39558 276.696227 
L 82.186829 275.939768 
L 87.150757 275.50077 
L 92.942007 275.225625 
L 99.560578 275.150911 
L 140.926647 275.403885 
L 146.717896 275.772462 
L 151.681825 276.305226 
L 157.473074 277.166084 
L 165.746288 278.676233 
L 174.846823 280.309398 
L 180.638073 281.126327 
L 185.602001 281.613576 
L 190.565929 281.864769 
L 194.702536 281.863032 
L 198.839143 281.63064 
L 202.148428 281.24339 
L 205.457714 280.639102 
L 208.766999 279.775666 
L 211.248964 278.930102 
L 213.730928 277.89226 
L 216.212892 276.642117 
L 218.694856 275.16076 
L 221.17682 273.431045 
L 223.658784 271.438016 
L 226.140748 269.168994 
L 228.622712 266.613276 
L 231.104677 263.761428 
L 233.586641 260.604222 
L 236.068605 257.131324 
L 238.550569 253.329895 
L 241.032533 249.183352 
L 243.514497 244.670508 
L 245.996461 239.765371 
L 248.478425 234.437811 
L 250.96039 228.655271 
L 253.442354 222.385602 
L 255.924318 215.601008 
L 258.406282 208.282954 
L 261.715567 197.692301 
L 265.024853 186.200907 
L 269.16146 170.795742 
L 279.916638 129.769536 
L 282.398602 121.423941 
L 284.053244 116.384654 
L 285.707887 111.860738 
L 287.36253 107.93195 
L 289.017173 104.673642 
L 290.671815 102.154635 
L 291.499137 101.191576 
L 292.326458 100.435137 
L 293.15378 99.891179 
L 293.981101 99.564788 
L 294.808422 99.46023 
L 295.635744 99.580907 
L 296.463065 99.929316 
L 297.290386 100.507021 
L 298.117708 101.314625 
L 298.945029 102.351751 
L 299.772351 103.61703 
L 301.426993 106.8216 
L 303.081636 110.897588 
L 304.736279 115.798896 
L 306.390922 121.465027 
L 308.045564 127.822484 
L 310.527528 138.467102 
L 313.009493 150.153037 
L 317.146099 170.992931 
L 322.937349 200.341975 
L 323.76467 204.351008 
L 323.76467 204.351008 
" clip-path="url(#p62d8bf6cdb)" style="fill: none; stroke: #ff7f0e; stroke-width: 2; stroke-linecap: square"/>
   </g>
   <g id="line2d_15">
    <path d="M 76.39558 282.805419 
L 87.978079 282.637727 
L 94.59665 282.334257 
L 99.560578 281.91643 
L 104.524506 281.279745 
L 109.488435 280.402223 
L 115.279684 279.113523 
L 130.171469 275.606497 
L 135.135397 274.778095 
L 140.099325 274.213905 
L 145.063254 273.883467 
L 152.509146 273.647733 
L 159.127717 273.390851 
L 163.264324 273.021716 
L 166.573609 272.523847 
L 169.882895 271.794702 
L 173.19218 270.802153 
L 176.501466 269.533098 
L 179.810751 267.9932 
L 183.120037 266.201061 
L 186.429322 264.177836 
L 189.738608 261.935135 
L 193.047893 259.465117 
L 196.357179 256.736496 
L 199.666464 253.698546 
L 202.97575 250.292736 
L 206.285035 246.468933 
L 209.594321 242.201422 
L 212.903606 237.499766 
L 216.212892 232.41114 
L 220.349499 225.626789 
L 226.96807 214.23053 
L 238.550569 194.238891 
L 248.478425 177.627134 
L 256.751639 164.154253 
L 260.888246 157.752465 
L 264.197532 152.986864 
L 266.679496 149.734536 
L 269.16146 146.860742 
L 270.816103 145.207423 
L 272.470745 143.803782 
L 274.125388 142.6854 
L 275.780031 141.888479 
L 277.434673 141.44898 
L 279.089316 141.401636 
L 280.743959 141.778877 
L 282.398602 142.609693 
L 284.053244 143.918462 
L 285.707887 145.723811 
L 287.36253 148.037534 
L 289.017173 150.863647 
L 290.671815 154.197615 
L 292.326458 158.025824 
L 293.981101 162.325317 
L 296.463065 169.58525 
L 298.945029 177.685417 
L 302.254315 189.470127 
L 308.872886 214.447285 
L 313.009493 229.467021 
L 315.491457 237.791971 
L 317.973421 245.424994 
L 320.455385 252.271236 
L 322.937349 258.279749 
L 323.76467 260.093641 
L 323.76467 260.093641 
" clip-path="url(#p62d8bf6cdb)" style="fill: none; stroke: #ffbb78; stroke-width: 2; stroke-linecap: square"/>
   </g>
   <g id="line2d_16">
    <path d="M 76.39558 282.830727 
L 104.524506 282.720616 
L 112.79772 282.467588 
L 118.58897 282.06748 
L 122.725577 281.591063 
L 126.862183 280.891246 
L 130.171469 280.12913 
L 133.480754 279.15461 
L 136.79004 277.942978 
L 140.099325 276.478782 
L 143.408611 274.759866 
L 146.717896 272.800845 
L 150.854503 270.067695 
L 156.645753 265.917835 
L 163.264324 261.231797 
L 166.573609 259.138718 
L 169.882895 257.336484 
L 172.364859 256.222746 
L 174.846823 255.340782 
L 177.328787 254.706124 
L 179.810751 254.324002 
L 182.292715 254.188287 
L 184.77468 254.280836 
L 187.256644 254.571295 
L 190.565929 255.191718 
L 199.666464 257.152226 
L 202.148428 257.40641 
L 204.630393 257.388652 
L 206.285035 257.186514 
L 207.939678 256.806013 
L 209.594321 256.226287 
L 211.248964 255.428213 
L 212.903606 254.394728 
L 214.558249 253.111104 
L 216.212892 251.565188 
L 217.867535 249.747596 
L 219.522177 247.651853 
L 221.17682 245.274488 
L 222.831463 242.615076 
L 225.313427 238.103679 
L 227.795391 232.985683 
L 230.277355 227.296937 
L 232.759319 221.086715 
L 236.068605 212.103097 
L 239.37789 202.47834 
L 244.341819 187.294048 
L 251.787711 164.453395 
L 255.096996 154.973184 
L 257.578961 148.389925 
L 260.060925 142.40102 
L 262.542889 137.135401 
L 264.197532 134.089396 
L 265.852174 131.457121 
L 267.506817 129.272758 
L 269.16146 127.56802 
L 270.816103 126.371474 
L 271.643424 125.971668 
L 272.470745 125.707841 
L 273.298067 125.582368 
L 274.125388 125.597294 
L 274.952709 125.754322 
L 275.780031 126.054785 
L 276.607352 126.499634 
L 277.434673 127.089422 
L 279.089316 128.703942 
L 280.743959 130.894273 
L 282.398602 133.649256 
L 284.053244 136.95051 
L 285.707887 140.772474 
L 287.36253 145.082637 
L 289.844494 152.376193 
L 292.326458 160.522896 
L 295.635744 172.39883 
L 300.599672 191.425428 
L 306.390922 213.558197 
L 309.700207 225.359647 
L 312.182171 233.558678 
L 314.664135 241.093937 
L 317.146099 247.905332 
L 319.628064 253.963213 
L 322.110028 259.265589 
L 323.76467 262.390676 
L 323.76467 262.390676 
" clip-path="url(#p62d8bf6cdb)" style="fill: none; stroke: #2ca02c; stroke-width: 2; stroke-linecap: square"/>
   </g>
   <g id="patch_3">
    <path d="M 64.027125 295.956 
L 64.027125 7.2 
" style="fill: none; stroke: #000000; stroke-width: 1.25; stroke-linejoin: miter; stroke-linecap: square"/>
   </g>
   <g id="patch_4">
    <path d="M 64.027125 295.956 
L 336.133125 295.956 
" style="fill: none; stroke: #000000; stroke-width: 1.25; stroke-linejoin: miter; stroke-linecap: square"/>
   </g>
   <g id="legend_1">
    <g id="line2d_17">
     <path d="M 75.907125 24.489938 
L 89.107125 24.489938 
L 102.307125 24.489938 
" style="fill: none; stroke: #1f77b4; stroke-width: 2; stroke-linecap: square"/>
    </g>
    <g id="text_14">
     <!-- H1 (n=2242) -->
     <g transform="translate(112.867125 29.109938) scale(0.132 -0.132)">
      <defs>
       <path id="DejaVuSans-48" d="M 628 4666 
L 1259 4666 
L 1259 2753 
L 3553 2753 
L 3553 4666 
L 4184 4666 
L 4184 0 
L 3553 0 
L 3553 2222 
L 1259 2222 
L 1259 0 
L 628 0 
L 628 4666 
z
" transform="scale(0.015625)"/>
       <path id="DejaVuSans-20" transform="scale(0.015625)"/>
       <path id="DejaVuSans-28" d="M 1984 4856 
Q 1566 4138 1362 3434 
Q 1159 2731 1159 2009 
Q 1159 1288 1364 580 
Q 1569 -128 1984 -844 
L 1484 -844 
Q 1016 -109 783 600 
Q 550 1309 550 2009 
Q 550 2706 781 3412 
Q 1013 4119 1484 4856 
L 1984 4856 
z
" transform="scale(0.015625)"/>
       <path id="DejaVuSans-3d" d="M 678 2906 
L 4684 2906 
L 4684 2381 
L 678 2381 
L 678 2906 
z
M 678 1631 
L 4684 1631 
L 4684 1100 
L 678 1100 
L 678 1631 
z
" transform="scale(0.015625)"/>
       <path id="DejaVuSans-29" d="M 513 4856 
L 1013 4856 
Q 1481 4119 1714 3412 
Q 1947 2706 1947 2009 
Q 1947 1309 1714 600 
Q 1481 -109 1013 -844 
L 513 -844 
Q 928 -128 1133 580 
Q 1338 1288 1338 2009 
Q 1338 2731 1133 3434 
Q 928 4138 513 4856 
z
" transform="scale(0.015625)"/>
      </defs>
      <use xlink:href="#DejaVuSans-48"/>
      <use xlink:href="#DejaVuSans-31" x="75.195312"/>
      <use xlink:href="#DejaVuSans-20" x="138.818359"/>
      <use xlink:href="#DejaVuSans-28" x="170.605469"/>
      <use xlink:href="#DejaVuSans-6e" x="209.619141"/>
      <use xlink:href="#DejaVuSans-3d" x="272.998047"/>
      <use xlink:href="#DejaVuSans-32" x="356.787109"/>
      <use xlink:href="#DejaVuSans-32" x="420.410156"/>
      <use xlink:href="#DejaVuSans-34" x="484.033203"/>
      <use xlink:href="#DejaVuSans-32" x="547.65625"/>
      <use xlink:href="#DejaVuSans-29" x="611.279297"/>
     </g>
    </g>
    <g id="line2d_18">
     <path d="M 75.907125 43.865063 
L 89.107125 43.865063 
L 102.307125 43.865063 
" style="fill: none; stroke: #aec7e8; stroke-width: 2; stroke-linecap: square"/>
    </g>
    <g id="text_15">
     <!-- H3 (n=788) -->
     <g transform="translate(112.867125 48.485063) scale(0.132 -0.132)">
      <defs>
       <path id="DejaVuSans-37" d="M 525 4666 
L 3525 4666 
L 3525 4397 
L 1831 0 
L 1172 0 
L 2766 4134 
L 525 4134 
L 525 4666 
z
" transform="scale(0.015625)"/>
      </defs>
      <use xlink:href="#DejaVuSans-48"/>
      <use xlink:href="#DejaVuSans-33" x="75.195312"/>
      <use xlink:href="#DejaVuSans-20" x="138.818359"/>
      <use xlink:href="#DejaVuSans-28" x="170.605469"/>
      <use xlink:href="#DejaVuSans-6e" x="209.619141"/>
      <use xlink:href="#DejaVuSans-3d" x="272.998047"/>
      <use xlink:href="#DejaVuSans-37" x="356.787109"/>
      <use xlink:href="#DejaVuSans-38" x="420.410156"/>
      <use xlink:href="#DejaVuSans-38" x="484.033203"/>
      <use xlink:href="#DejaVuSans-29" x="547.65625"/>
     </g>
    </g>
    <g id="line2d_19">
     <path d="M 75.907125 63.240187 
L 89.107125 63.240187 
L 102.307125 63.240187 
" style="fill: none; stroke: #ff7f0e; stroke-width: 2; stroke-linecap: square"/>
    </g>
    <g id="text_16">
     <!-- HX (n=153) -->
     <g transform="translate(112.867125 67.860187) scale(0.132 -0.132)">
      <defs>
       <path id="DejaVuSans-58" d="M 403 4666 
L 1081 4666 
L 2241 2931 
L 3406 4666 
L 4084 4666 
L 2584 2425 
L 4184 0 
L 3506 0 
L 2194 1984 
L 872 0 
L 191 0 
L 1856 2491 
L 403 4666 
z
" transform="scale(0.015625)"/>
      </defs>
      <use xlink:href="#DejaVuSans-48"/>
      <use xlink:href="#DejaVuSans-58" x="75.195312"/>
      <use xlink:href="#DejaVuSans-20" x="143.701172"/>
      <use xlink:href="#DejaVuSans-28" x="175.488281"/>
      <use xlink:href="#DejaVuSans-6e" x="214.501953"/>
      <use xlink:href="#DejaVuSans-3d" x="277.880859"/>
      <use xlink:href="#DejaVuSans-31" x="361.669922"/>
      <use xlink:href="#DejaVuSans-35" x="425.292969"/>
      <use xlink:href="#DejaVuSans-33" x="488.916016"/>
      <use xlink:href="#DejaVuSans-29" x="552.539062"/>
     </g>
    </g>
    <g id="line2d_20">
     <path d="M 75.907125 82.615313 
L 89.107125 82.615313 
L 102.307125 82.615313 
" style="fill: none; stroke: #ffbb78; stroke-width: 2; stroke-linecap: square"/>
    </g>
    <g id="text_17">
     <!-- H5 (n=52) -->
     <g transform="translate(112.867125 87.235313) scale(0.132 -0.132)">
      <use xlink:href="#DejaVuSans-48"/>
      <use xlink:href="#DejaVuSans-35" x="75.195312"/>
      <use xlink:href="#DejaVuSans-20" x="138.818359"/>
      <use xlink:href="#DejaVuSans-28" x="170.605469"/>
      <use xlink:href="#DejaVuSans-6e" x="209.619141"/>
      <use xlink:href="#DejaVuSans-3d" x="272.998047"/>
      <use xlink:href="#DejaVuSans-35" x="356.787109"/>
      <use xlink:href="#DejaVuSans-32" x="420.410156"/>
      <use xlink:href="#DejaVuSans-29" x="484.033203"/>
     </g>
    </g>
    <g id="line2d_21">
     <path d="M 75.907125 101.990437 
L 89.107125 101.990437 
L 102.307125 101.990437 
" style="fill: none; stroke: #2ca02c; stroke-width: 2; stroke-linecap: square"/>
    </g>
    <g id="text_18">
     <!-- H7 (n=15) -->
     <g transform="translate(112.867125 106.610437) scale(0.132 -0.132)">
      <use xlink:href="#DejaVuSans-48"/>
      <use xlink:href="#DejaVuSans-37" x="75.195312"/>
      <use xlink:href="#DejaVuSans-20" x="138.818359"/>
      <use xlink:href="#DejaVuSans-28" x="170.605469"/>
      <use xlink:href="#DejaVuSans-6e" x="209.619141"/>
      <use xlink:href="#DejaVuSans-3d" x="272.998047"/>
      <use xlink:href="#DejaVuSans-31" x="356.787109"/>
      <use xlink:href="#DejaVuSans-35" x="420.410156"/>
      <use xlink:href="#DejaVuSans-29" x="484.033203"/>
     </g>
    </g>
   </g>
  </g>
 </g>
 <defs>
  <clipPath id="p62d8bf6cdb">
   <rect x="64.027125" y="7.2" width="272.106" height="288.756"/>
  </clipPath>
 </defs>
</svg>
